<svg id="Layer_1" enable-background="new 0 0 512 512" height="512" viewBox="0 0 512 512" width="512" xmlns="http://www.w3.org/2000/svg"><g><g><path d="m426 0h-340c-16.543 0-30 13.458-30 30v452c0 16.542 13.458 30 30 30h340c16.542 0 30-13.458 30-30v-452c0-16.542-13.458-30-30-30zm10 482c0 5.514-4.486 10-10 10h-340c-5.514 0-10-4.486-10-10v-452c0-5.514 4.486-10 10-10h340c5.514 0 10 4.486 10 10z"/><path d="m305.998 180.001c5.523 0 10-4.477 10-10v-20.001h20v20.001c0 5.523 4.477 10 10 10s10-4.477 10-10v-60c0-16.542-13.458-30-30-30s-30 13.458-30 30v60c0 5.523 4.477 10 10 10zm10-70c0-5.514 4.486-10 10-10s10 4.486 10 10v19.999h-20z"/><path d="m325.999 220.001c49.626 0 90-40.374 90-90s-40.374-90-90-90-90 40.374-90 90c-.001 49.626 40.373 90 90 90zm0-160c38.598 0 70 31.402 70 70s-31.402 70-70 70-70-31.402-70-70 31.402-70 70-70z"/><path d="m405.999 432h-299.999c-5.523 0-10 4.477-10 10s4.477 10 10 10h299.999c5.523 0 10-4.477 10-10s-4.477-10-10-10z"/><path d="m106 412h150c5.523 0 10-4.477 10-10s-4.477-10-10-10h-150c-5.523 0-10 4.477-10 10s4.477 10 10 10z"/><path d="m405.999 352h-299.999c-5.523 0-10 4.477-10 10s4.477 10 10 10h299.999c5.523 0 10-4.477 10-10s-4.477-10-10-10z"/><path d="m106 332h150c5.523 0 10-4.477 10-10s-4.477-10-10-10h-150c-5.523 0-10 4.477-10 10s4.477 10 10 10z"/><path d="m106 292h104.996c5.523 0 10-4.477 10-10s-4.477-10-10-10h-104.996c-5.523 0-10 4.477-10 10s4.477 10 10 10z"/><path d="m405.999 272h-105.003c-5.523 0-10 4.477-10 10s4.477 10 10 10h105.003c5.523 0 10-4.477 10-10s-4.477-10-10-10z"/><path d="m106 60.002h119.999c5.523 0 10-4.477 10-10s-4.477-10-10-10h-119.999c-5.523 0-10 4.477-10 10s4.477 10 10 10z"/><path d="m106 100.002h99.998c5.523 0 10-4.477 10-10s-4.477-10-10-10h-99.998c-5.523 0-10 4.477-10 10s4.477 10 10 10z"/><path d="m255.992 272c-5.523 0-9.996 4.477-9.996 10s4.48 10 10.003 10 10-4.477 10-10-4.477-10-10-10z"/></g></g></svg>