<svg id="Layer_1" enable-background="new 0 0 512 512" height="512" viewBox="0 0 512 512" width="512" xmlns="http://www.w3.org/2000/svg"><g><g><path d="m484.294 38.312c-18.322-18.322-42.844-28.171-69.085-27.688-24.972.444-49.928 10.065-70.269 27.091l-260.217 217.789c-5.862 4.906-9.284 11.974-9.635 19.901-.264 5.952 1.223 11.818 4.179 16.885l-31.535 57.277c-7.802 14.172-1.417 22.929 1.689 26.036l9.9 9.9-14.141 14.142c-3.771 3.77-5.847 8.793-5.847 14.144 0 4.928 1.781 9.566 5.005 13.215l-41.409 41.408c-2.521 2.521-3.509 6.193-2.594 9.638s3.595 6.143 7.034 7.081l58.337 15.909c.869.237 1.753.353 2.63.353 2.617 0 5.172-1.029 7.072-2.929l20.196-20.196c3.649 3.225 8.286 5.005 13.215 5.005 5.35 0 10.372-2.076 14.142-5.846l14.142-14.142 9.901 9.901c2.018 2.017 6.416 5.416 13.134 5.416 3.628 0 7.933-.992 12.902-3.728l57.28-31.536c4.682 2.731 10.044 4.211 15.529 4.211.45 0 .901-.01 1.353-.03 7.928-.351 14.995-3.773 19.901-9.635l217.79-260.218c17.025-20.342 26.646-45.298 27.091-70.27.466-26.227-9.367-50.762-27.69-69.084zm-418.925 441.906-36.113-9.849 29.182-29.181 22.981 22.981zm43.451-16.933-49.498-49.498 14.141-14.142 49.498 49.498zm360.735-298.455-217.79 260.218c-1.616 1.931-3.854 2.42-5.448 2.491-2.977.137-5.996-1.043-8.096-3.144l-38.187-38.187c-3.905-3.904-10.235-3.904-14.143 0-3.905 3.905-3.905 10.237 0 14.143l28.775 28.775-51.273 28.229c-1.293.712-2.23 1.032-2.777 1.16l-96.524-96.525c.129-.547.449-1.485 1.16-2.777l28.229-51.273 28.771 28.771c3.906 3.905 10.236 3.905 14.143 0 3.905-3.906 3.905-10.237 0-14.143l-38.033-38.032c-.011-.012-.023-.023-.035-.035l-.115-.115c-2.101-2.1-3.275-5.126-3.144-8.096.07-1.594.56-3.833 2.49-5.449l260.218-217.79c35.637-29.826 82.897-30.077 112.376-.597 29.48 29.48 29.228 76.741-.597 112.376z"/><path d="m402.27 84.368c-9.636 0-18.676 3.733-25.456 10.513l-166.171 166.171c-14.036 14.037-14.036 36.876 0 50.911 6.779 6.779 15.819 10.513 25.456 10.513s18.677-3.734 25.456-10.513l166.171-166.171c6.779-6.779 10.513-15.82 10.513-25.456s-3.733-18.677-10.513-25.456c-6.779-6.778-15.819-10.512-25.456-10.512zm11.313 47.282-166.171 166.172c-3.002 3.001-7.02 4.655-11.313 4.655s-8.312-1.653-11.313-4.655c-6.238-6.238-6.238-16.389 0-22.627l166.171-166.171c3.002-3.002 7.02-4.655 11.313-4.655s8.312 1.653 11.313 4.655c3.002 3.002 4.655 7.02 4.655 11.313s-1.653 8.311-4.655 11.313z"/><path d="m167.897 354.085c-4.072-3.732-10.395-3.454-14.125.617-3.732 4.071-3.454 10.399.617 14.131 1.92 1.76 4.34 2.628 6.754 2.628 2.705 0 5.402-1.091 7.374-3.243 3.732-4.071 3.457-10.397-.614-14.129z"/></g></g></svg>