<svg id="Layer_1" enable-background="new 0 0 511.995 511.995" height="512" viewBox="0 0 511.995 511.995" width="512" xmlns="http://www.w3.org/2000/svg"><g><g><path d="m511.995 88.661c0-6.828-2.659-13.248-7.487-18.077l-63.108-63.107c-9.968-9.968-26.187-9.967-36.154 0l-26.265 26.265c-6.669-1.77-14.078-.064-19.3 5.157l-21.213 21.213c-3.77 3.77-5.846 8.792-5.846 14.143 0 1.769.248 3.495.688 5.158l-306.23 306.23c-.003.003-.005.006-.008.008 0 0 0 0-.001 0-.001.001-.002.002-.003.003-3.304 3.301-5.635 7.52-6.74 12.196l-19.567 82.42c-.99 3.938-1.018 8.111-.08 12.078 1.567 6.63 5.624 12.253 11.42 15.833 4.078 2.518 8.674 3.813 13.352 3.813 1.972 0 3.959-.23 5.927-.696l81.074-19.246c5.284-.875 10.073-3.338 13.876-7.141l306.239-306.239c1.663.44 3.389.688 5.157.688 5.35 0 10.373-2.076 14.142-5.845l21.215-21.214c5.22-5.221 6.926-12.63 5.156-19.299l26.265-26.265c4.832-4.828 7.491-11.248 7.491-18.076zm-265.587 148.542c1.953 1.953 4.512 2.929 7.071 2.929s5.119-.976 7.071-2.929l113.363-113.363 14.23 14.23-293.74 293.74c-.531-.066-1.053-.128-1.553-.186-4.552-.525-6.501-.84-9.076-3.415-2.574-2.575-2.89-4.524-3.414-9.076-.058-.5-.12-1.023-.186-1.555l116.737-116.737c3.905-3.905 3.905-10.237 0-14.143s-10.237-3.905-14.143 0l-111.528 111.531c-.007-.007-.013-.015-.021-.022-6.961-6.962-13.997-8.292-19.452-8.965l293.774-293.774 14.23 14.23-113.363 113.363c-3.905 3.905-3.905 10.237 0 14.142zm-123.665 223.014c-.673-5.454-2.003-12.49-8.965-19.452-.008-.008-.015-.014-.023-.022l288.53-288.53 14.231 14.231zm-54.901 21.871c-4.436-7.907-9.904-15.16-16.345-21.602-6.441-6.441-13.694-11.908-21.602-16.344l8.793-37.037c3.423 1.142 6.609 1.518 9.313 1.829 4.551.524 6.501.84 9.076 3.415 2.574 2.574 2.89 4.524 3.414 9.075.648 5.623 1.535 13.323 9.141 20.928 7.605 7.606 15.306 8.493 20.928 9.141 4.552.524 6.501.84 9.076 3.414 2.575 2.575 2.89 4.524 3.415 9.076.312 2.703.687 5.89 1.829 9.313zm-41.07 9.749c-1.433.337-2.909.099-4.16-.673-1.251-.773-2.127-1.987-2.465-3.417-.208-.878-.202-1.759.018-2.618.014-.055.028-.11.041-.165l4.838-20.378c4.417 2.922 8.541 6.272 12.312 10.044 3.772 3.772 7.122 7.895 10.044 12.312zm410.959-332.464-85.12-85.119 21.211-21.214 85.102 85.1c.007.006.012.014.018.02zm52.634-66.778-24.351 24.351-70.975-70.976 24.351-24.351c2.169-2.169 5.7-2.17 7.869 0l63.107 63.107c1.051 1.051 1.63 2.448 1.63 3.934s-.579 2.884-1.631 3.935z"/><path d="m214.587 254.884c-3.905 3.905-3.905 10.237 0 14.142 1.953 1.953 4.512 2.929 7.071 2.929s5.118-.977 7.071-2.929l.005-.005c3.905-3.905 3.903-10.234-.002-14.139-3.906-3.907-10.24-3.903-14.145.002z"/></g></g></svg>