<svg id="Layer_1" enable-background="new 0 0 512.001 512.001" height="512" viewBox="0 0 512.001 512.001" width="512" xmlns="http://www.w3.org/2000/svg"><g><g><path d="m353.199 293.325c-4.317-17.267-15.42-27.575-29.701-27.575h-134.994c-14.282 0-25.385 10.308-29.702 27.574l-10 39.998c-1.761 7.041-.121 14.26 4.617 20.328 5.826 7.462 15.438 12.098 25.084 12.098h154.994c9.646 0 19.258-4.636 25.084-12.098 4.738-6.068 6.377-13.287 4.617-20.328zm-87.198-7.575h24.125v59.998h-24.125zm-20 59.998h-24.126v-59.998h24.126zm-76.817-4.406c-1.341-1.718-1.078-2.771-.979-3.168l10.001-39.999c1.16-4.641 4.041-12.425 10.298-12.425h13.371v59.998h-23.371c-3.407 0-7.327-1.853-9.32-4.406zm173.634 0c-1.993 2.553-5.913 4.406-9.32 4.406h-23.371v-59.998h13.371c6.257 0 9.138 7.785 10.298 12.426l10 39.998c.1.396.363 1.45-.978 3.168z"/><path d="m365.373 112.5h-64.375c-5.523 0-10 4.477-10 10s4.477 10 10 10h64.375c5.514 0 10 4.486 10 10v33.247c0 5.514-4.486 10-10 10h-218.744c-5.514 0-10-4.486-10-10v-33.247c0-5.514 4.486-10 10-10h64.369c5.523 0 10-4.477 10-10s-4.477-10-10-10h-64.369c-16.542 0-30 13.458-30 30v33.247c0 16.542 13.458 30 30 30h218.744c16.542 0 30-13.458 30-30v-33.247c0-16.542-13.458-30-30-30z"/><path d="m482.001 124.251h-46.627v-1.75c0-40.912-14.951-71.758-44.438-91.683-29.444-19.897-73.582-29.568-134.935-29.568s-105.491 9.671-134.936 29.567c-29.486 19.925-44.438 50.772-44.438 91.683v1.75h-46.627c-16.542 0-30 13.458-30 30v50c0 16.542 13.458 30 30 30h46.627v43.006c-11.066 9.179-18.126 23.026-18.126 38.492v71.581c-13.041 4.228-22.5 16.487-22.5 30.919s9.459 26.691 22.5 30.919v41.583c0 11.028 8.972 20 20 20h40.003c11.028 0 20-8.972 20-20v-40h234.996v40.002c0 11.028 8.972 20 20 20h40.002c11.028 0 20-8.972 20-20v-41.583c13.041-4.228 22.5-16.487 22.5-30.919s-9.459-26.691-22.5-30.919v-71.581c0-15.467-7.061-29.314-18.126-38.492v-43.006h46.627c16.542 0 30-13.458 30-30v-50c-.002-16.543-13.46-30.001-30.002-30.001zm-226-103.001c91.221 0 131.079 22.568 147.877 51.249h-295.755c16.798-28.681 56.657-51.249 147.878-51.249zm-216.001 193h-10c-5.514 0-10-4.486-10-10v-50c0-5.514 4.486-10 10-10h10zm20 0v-69.999h16.627v70zm333.499 171.5h-274.997v-110.002c0-16.542 13.458-30 30-30h214.997c16.542 0 30 13.458 30 30v110.002c0-.001 0-.001 0 0zm20-.001v-98.279c11.64 4.128 20.001 15.243 20.001 28.28v70zm-314.997.001h-20.001v-70c0-13.037 8.362-24.152 20.001-28.28v98.28c0-.001 0-.001 0 0zm20.001 105.001h-40.002v-40.001h40.002zm274.996.001v-40.002h40.002v40.002zm50.001-60.002h-375c-6.893 0-12.5-5.607-12.5-12.5s5.607-12.5 12.5-12.5h375c6.893 0 12.5 5.607 12.5 12.5s-5.607 12.5-12.5 12.5zm-30.854-164.147c-4.311-23.216-24.701-40.855-49.147-40.855h-214.997c-24.446 0-44.836 17.639-49.147 40.855-.918.171-1.828.363-2.728.583v-144.686c0-9.882.803-20.07 3.363-30.001h312.021c2.56 9.932 3.363 20.119 3.363 30.001v144.686c-.9-.22-1.81-.412-2.728-.583zm39.355-52.353h-16.627v-70h16.627zm40-9.999c0 5.514-4.486 10-10 10h-10v-70h10c5.514 0 10 4.486 10 10z"/><path d="m256.001 132.5c5.523 0 10-4.477 10-10s-4.477-10-10-10h-.007c-5.523 0-9.996 4.477-9.996 10s4.48 10 10.003 10z"/></g></g></svg>