<svg id="Layer_1" enable-background="new 0 0 512.001 512.001" height="512" viewBox="0 0 512.001 512.001" width="512" xmlns="http://www.w3.org/2000/svg"><g><g><path d="m476.001 0h-440.001c-5.523 0-10 4.477-10 10v492.001c0 5.523 4.477 10 10 10h440c5.522 0 10-4.477 10-10v-492.001c.001-5.523-4.477-10-9.999-10zm-10 452h-126.667v-432h126.667zm-293.334-432v432h-126.667v-432zm-126.667 472.001v-20.001h164.997c5.523 0 10-4.477 10-10s-4.477-10-10-10h-18.33v-432h126.667v432h-18.337c-5.522 0-10 4.477-10 10s4.478 10 10 10h165.004v20.001z"/><path d="m76.002 60.001h66.663c5.523 0 10-4.477 10-10s-4.477-10-10-10h-66.663c-5.523 0-10 4.477-10 10s4.477 10 10 10z"/><path d="m76.002 185.5c-5.523 0-10 4.477-10 10v81c0 5.523 4.477 10 10 10s10-4.477 10-10v-30.5h13.331c5.523 0 10-4.477 10-10s-4.477-10-10-10h-13.331v-30.5c0-5.523-4.477-10-10-10z"/><path d="m76.002 431.999h66.663c5.523 0 10-4.477 10-10s-4.477-10-10-10h-66.663c-5.523 0-10 4.477-10 10s4.477 10 10 10z"/><path d="m76.002 391.998h66.663c5.523 0 10-4.477 10-10s-4.477-10-10-10h-66.663c-5.523 0-10 4.477-10 10s4.477 10 10 10z"/><path d="m76.002 100.002h66.663c5.523 0 10-4.477 10-10s-4.477-10-10-10h-66.663c-5.523 0-10 4.477-10 10s4.477 10 10 10z"/><path d="m222.668 60.001h66.664c5.522 0 10-4.477 10-10s-4.478-10-10-10h-66.664c-5.523 0-10 4.477-10 10s4.478 10 10 10z"/><path d="m222.669 185.5c-5.523 0-10 4.477-10 10v81c0 5.523 4.477 10 10 10s10-4.477 10-10v-30.5h13.331c5.523 0 10-4.477 10-10s-4.477-10-10-10h-13.331v-30.5c0-5.523-4.477-10-10-10z"/><path d="m299.332 421.999c0-5.523-4.478-10-10-10h-66.664c-5.523 0-10 4.477-10 10s4.477 10 10 10h66.664c5.522 0 10-4.477 10-10z"/><path d="m222.668 391.998h66.664c5.522 0 10-4.477 10-10s-4.478-10-10-10h-66.664c-5.523 0-10 4.477-10 10s4.478 10 10 10z"/><path d="m222.668 100.002h66.664c5.522 0 10-4.477 10-10s-4.478-10-10-10h-66.664c-5.523 0-10 4.477-10 10s4.478 10 10 10z"/><path d="m369.335 60.001h66.663c5.522 0 10-4.477 10-10s-4.478-10-10-10h-66.663c-5.522 0-10 4.477-10 10s4.478 10 10 10z"/><path d="m369.336 185.5c-5.522 0-10 4.477-10 10v81c0 5.523 4.478 10 10 10s10-4.477 10-10v-30.5h13.331c5.522 0 10-4.477 10-10s-4.478-10-10-10h-13.331v-30.5c0-5.523-4.478-10-10-10z"/><path d="m435.998 411.999h-66.663c-5.522 0-10 4.477-10 10s4.478 10 10 10h66.663c5.522 0 10-4.477 10-10s-4.477-10-10-10z"/><path d="m369.335 391.998h66.663c5.522 0 10-4.477 10-10s-4.478-10-10-10h-66.663c-5.522 0-10 4.477-10 10s4.478 10 10 10z"/><path d="m369.335 100.002h66.663c5.522 0 10-4.477 10-10s-4.478-10-10-10h-66.663c-5.522 0-10 4.477-10 10s4.478 10 10 10z"/><path d="m256 452h-.007c-5.523 0-9.996 4.477-9.996 10s4.48 10 10.003 10 10-4.477 10-10-4.477-10-10-10z"/></g></g></svg>