<svg id="Layer_1" enable-background="new 0 0 512.001 512.001" height="512" viewBox="0 0 512.001 512.001" width="512" xmlns="http://www.w3.org/2000/svg"><g><g><path d="m333.459 159.855c3.188-5.026 5.043-10.976 5.043-17.355 0-14.432-9.458-26.691-22.5-30.919v-81.581c0-16.542-13.458-30-30-30h-60c-16.542 0-30 13.458-30 30v81.581c-13.042 4.228-22.5 16.487-22.5 30.919 0 6.379 1.855 12.33 5.042 17.355-30.629 11.226-52.543 40.675-52.543 75.146v227.001c0 27.57 22.43 50 50 50h160c27.57 0 50-22.43 50-50v-227.002c0-34.47-21.914-63.918-52.542-75.145zm32.542 213.645h-60v-80h60zm-139.999-353.5h60c5.514 0 10 4.486 10 10v80h-80v-80c0-5.514 4.486-10 10-10zm-20 110h100c6.893 0 12.5 5.607 12.5 12.5s-5.607 12.5-12.5 12.5h-.001-99.999c-6.893 0-12.5-5.607-12.5-12.5s5.607-12.5 12.5-12.5zm-.001 45h100c29.676 0 54.374 21.661 59.151 50h-64.154c-5.522 0-10 4.477-10 10s4.478 10 10 10h65.003v28.5h-60c-11.028 0-20 8.972-20 20v80c0 11.028 8.972 20 20 20h60v28.5h-220v-177h64.997c5.522 0 10-4.477 10-10s-4.478-10-10-10h-64.148c4.777-28.339 29.475-50 59.151-50zm130 317.001h-160c-16.542 0-30-13.458-30-30v-20.001h220v20.001c0 16.542-13.458 30-30 30z"/><path d="m256.001 245c5.522 0 10-4.477 10-10s-4.478-10-10-10h-.007c-5.522 0-9.996 4.477-9.996 10s4.48 10 10.003 10z"/></g></g></svg>