<svg id="Layer_1" enable-background="new 0 0 512.001 512.001" height="512" viewBox="0 0 512.001 512.001" width="512" xmlns="http://www.w3.org/2000/svg"><g><g><path d="m482.001 52.002h-50.003v-22.002c0-16.542-13.458-30-30-30s-30 13.458-30 30v22.002h-85.998v-22.002c0-16.542-13.458-30-30-30s-30 13.458-30 30v22.002h-85.998v-22.002c0-16.542-13.458-30-30-30s-30 13.458-30 30v22.002h-50.002c-16.542 0-30 13.458-30 30v400c0 16.542 13.458 30 30 30h180.998c5.523 0 10-4.477 10-10s-4.477-10-10-10h-180.998c-5.514 0-10-4.486-10-10v-400c0-5.514 4.486-10 10-10h51.723c4.128 11.639 15.243 20 28.28 20s24.152-8.361 28.28-20h89.438c4.128 11.639 15.243 20 28.28 20s24.152-8.361 28.28-20h89.438c4.128 11.639 15.243 20 28.28 20s24.152-8.361 28.28-20h51.723c5.514 0 10 4.486 10 10v400c0 5.514-4.486 10-10 10h-181.005c-5.523 0-10 4.477-10 10s4.477 10 10 10h181.004c16.542 0 30-13.458 30-30v-400c0-16.543-13.458-30-30-30zm-361.999 10c0 5.514-4.486 10-10 10s-10-4.486-10-10v-32.002c0-5.514 4.486-10 10-10s10 4.486 10 10zm145.998 0c0 5.514-4.486 10-10 10s-10-4.486-10-10v-32.002c0-5.514 4.486-10 10-10s10 4.486 10 10zm145.999 0c0 5.514-4.486 10-10 10s-10-4.486-10-10v-32.002c0-5.514 4.486-10 10-10s10 4.486 10 10z"/><path d="m100.245 112.003h-50.244c-5.523 0-10 4.477-10 10s4.477 10 10 10h50.244c5.523 0 10-4.477 10-10s-4.477-10-10-10z"/><path d="m291.123 162.004c0-5.523-4.477-10-10-10h-50.244c-5.523 0-10 4.477-10 10v299.997c0 5.523 4.477 10 10 10h50.244c5.523 0 10-4.477 10-10zm-50.244 129.999h30.244v39.999h-30.244zm30.244-20h-30.244v-40h30.244zm-30.244 79.999h30.244v40h-30.244zm30.244-179.998v39.999h-30.244v-39.999zm-30.244 279.997v-40h30.244v40z"/><path d="m190.683 152.004h-50.244c-5.523 0-10 4.477-10 10v299.997c0 5.523 4.477 10 10 10h50.244c5.523 0 10-4.477 10-10v-299.997c0-5.523-4.477-10-10-10zm-40.244 139.999h30.244v39.999h-30.244zm30.244-20h-30.244v-40h30.244zm-30.244 79.999h30.244v40h-30.244zm30.244-179.998v39.999h-30.244v-39.999zm-30.244 279.997v-40h30.244v40z"/><path d="m100.245 152.004h-50.244c-5.523 0-10 4.477-10 10v299.997c0 5.523 4.477 10 10 10h50.244c5.523 0 10-4.477 10-10v-299.997c0-5.523-4.477-10-10-10zm-40.244 139.999h30.244v39.999h-30.244zm30.244-20h-30.244v-40h30.244zm-30.244 79.999h30.244v40h-30.244zm30.244-179.998v39.999h-30.244v-39.999zm-30.244 279.997v-40h30.244v40z"/><path d="m311.317 462.001c0 5.523 4.477 10 10 10h50.244c5.523 0 10-4.477 10-10v-299.997c0-5.523-4.477-10-10-10h-50.244c-5.523 0-10 4.477-10 10zm50.244-129.999h-30.244v-39.999h30.244zm-30.244 20h30.244v40h-30.244zm30.244-79.999h-30.244v-40h30.244zm-30.244 179.998v-40h30.244v40zm30.244-279.997v39.999h-30.244v-39.999z"/><path d="m401.757 462.001c0 5.523 4.477 10 10 10h50.243c5.523 0 10-4.477 10-10v-299.997c0-5.523-4.477-10-10-10h-50.243c-5.523 0-10 4.477-10 10zm50.243-129.999h-30.243v-39.999h30.243zm-30.243 20h30.243v40h-30.243zm30.243-79.999h-30.243v-40h30.243zm-30.243 179.998v-40h30.243v40zm30.243-279.997v39.999h-30.243v-39.999z"/><path d="m190.683 112.003h-50.243c-5.523 0-10 4.477-10 10s4.477 10 10 10h50.243c5.523 0 10-4.477 10-10s-4.477-10-10-10z"/><path d="m230.879 132.003h50.243c5.523 0 10-4.477 10-10s-4.477-10-10-10h-50.243c-5.523 0-10 4.477-10 10s4.477 10 10 10z"/><path d="m321.318 132.003h50.243c5.523 0 10-4.477 10-10s-4.477-10-10-10h-50.243c-5.523 0-10 4.477-10 10s4.477 10 10 10z"/><path d="m411.757 132.003h50.243c5.523 0 10-4.477 10-10s-4.477-10-10-10h-50.243c-5.523 0-10 4.477-10 10s4.477 10 10 10z"/><path d="m256 492.001h-.007c-5.523 0-9.996 4.477-9.996 10s4.48 10 10.003 10 10-4.477 10-10-4.477-10-10-10z"/></g></g></svg>