<svg id="Layer_1" enable-background="new 0 0 512.001 512.001" height="512" viewBox="0 0 512.001 512.001" width="512" xmlns="http://www.w3.org/2000/svg"><g><g><path d="m492.002 426.001h-6.002v-290c0-16.542-13.458-30-30-30h-107.571l-71.215-71.214c-.122-.122-.253-.228-.379-.343-5.401-5.221-12.746-8.444-20.834-8.444-8.085 0-15.427 3.22-20.827 8.438-.129.116-.262.225-.386.349l-71.215 71.214h-107.573c-16.542 0-30 13.458-30 30v290h-6c-11.028 0-20 8.972-20 20v20c0 11.028 8.972 20 20 20h472.002c11.028 0 20-8.972 20-20v-20c-.001-11.028-8.972-20-20-20zm-226.001-370.001c0 5.514-4.486 10-10 10s-10-4.486-10-10 4.486-10 10-10 10 4.486 10 10zm-37.068 12.926c4.838 10.09 15.152 17.074 27.068 17.074s22.23-6.984 27.068-17.073l37.075 37.074h-128.286zm-182.932 357.075v-290c0-5.514 4.486-10 10-10h400c5.514 0 10 4.486 10 10v290h-20v-270c0-5.523-4.477-10-10-10h-135.003c-5.523 0-10 4.477-10 10s4.477 10 10 10h125.003v260h-20.001v-20c0-11.028-8.972-20-20-20h-60.001c-11.028 0-20 8.972-20 20v20h-219.998v-260h124.997c5.523 0 10-4.477 10-10s-4.477-10-10-10h-134.997c-5.523 0-10 4.477-10 10v270zm279.998-20h60v20h-60zm-305.999 60.001v-20h472.001v20z"/><path d="m175.999 246.001c-16.542 0-30 13.458-30 30v60c0 5.523 4.477 10 10 10s10-4.477 10-10v-20.001h20v20.001c0 5.523 4.477 10 10 10s10-4.477 10-10v-60c.001-16.542-13.457-30-30-30zm10 49.999h-20v-19.999c0-5.514 4.486-10 10-10s10 4.486 10 10z"/><path d="m336.002 346.001c16.542 0 30-13.458 30-30 0-5.523-4.477-10-10-10s-10 4.477-10 10c0 5.514-4.486 10-10 10s-10-4.486-10-10v-40c0-5.514 4.486-10 10-10s10 4.486 10 10c0 5.523 4.477 10 10 10s10-4.477 10-10c0-16.542-13.458-30-30-30s-30 13.458-30 30v40c0 16.542 13.458 30 30 30z"/><path d="m236 346.001h20c16.542 0 30-13.458 30-30 0-7.676-2.898-14.688-7.657-20 4.759-5.312 7.657-12.324 7.657-20 0-16.542-13.458-30-30-30h-20c-5.523 0-10 4.477-10 10v80c0 5.523 4.478 10 10 10zm20.001-20h-10v-20h10c5.514 0 10 4.486 10 10-.001 5.514-4.486 10-10 10zm0-60c5.514 0 10 4.486 10 10s-4.486 10-10 10h-10v-20z"/><path d="m256.001 166.001c5.523 0 10-4.477 10-10s-4.477-10-10-10h-.007c-5.523 0-9.996 4.477-9.996 10s4.48 10 10.003 10z"/></g></g></svg>