<svg id="Layer_1" enable-background="new 0 0 512.052 512.052" height="512" viewBox="0 0 512.052 512.052" width="512" xmlns="http://www.w3.org/2000/svg"><g><g><path d="m495.637 365.938-9.882-315.227c-.504-16.086-13.24-28.687-28.995-28.687s-28.491 12.601-28.995 28.687l-9.923 316.545c-22.766 41.229-4.431 60.966 10.356 76.88 9.96 10.72 18.563 19.977 18.563 35.893 0 3.109 1.446 6.041 3.912 7.934 1.766 1.355 3.91 2.066 6.089 2.066.864 0 1.734-.112 2.587-.341 21.299-5.707 42.218-30.222 49.738-58.292 6.718-25.074 1.932-48.149-13.45-65.458zm-63.637 51.632c-6.128-9.351-7.527-19.624 1.692-37.545h47.685c5.707 6.749 8.601 14.085 9.83 21.112-15.062-1.268-24.668 3.803-33.357 8.398-7.364 3.892-14.382 7.581-25.85 8.035zm15.755-366.233c.164-5.222 4.119-9.313 9.005-9.313s8.841 4.091 9.005 9.313l9.677 308.687h-37.363zm17.044 413.528c-3.343-12.381-10.459-21.624-17.414-29.396 8.156-2.099 14.38-5.382 19.813-8.254 7.936-4.196 13.723-7.239 23.709-6.027-.342 1.833-.735 3.526-1.139 5.031-4.595 17.147-14.856 31.107-24.969 38.646z"/><path d="m350 .026h-320c-16.542 0-30 13.458-30 30v452c0 16.542 13.458 30 30 30h320c16.542 0 30-13.458 30-30v-452c0-16.542-13.458-30-30-30zm10 482c0 5.514-4.486 10-10 10h-320c-5.514 0-10-4.486-10-10v-452c0-5.514 4.486-10 10-10h320c5.514 0 10 4.486 10 10z"/><path d="m192.25 40.026c-16.542 0-30 13.458-30 30v141.004c0 5.523 4.477 10 10 10s10-4.477 10-10v-141.004c0-5.514 4.486-10 10-10s10 4.486 10 10v372c0 5.514-4.486 10-10 10s-10-4.486-10-10v-140.996c0-5.523-4.477-10-10-10s-10 4.477-10 10v140.996c0 16.542 13.458 30 30 30s30-13.458 30-30v-372c0-16.542-13.458-30-30-30z"/><path d="m91.125 40.026c-28.19 0-51.125 22.935-51.125 51.125s22.935 51.125 51.125 51.125 51.125-22.935 51.125-51.125-22.934-51.125-51.125-51.125zm0 82.25c-17.162 0-31.125-13.963-31.125-31.125s13.963-31.125 31.125-31.125 31.125 13.963 31.125 31.125-13.962 31.125-31.125 31.125z"/><path d="m91.125 369.776c-28.19 0-51.125 22.934-51.125 51.125s22.935 51.125 51.125 51.125 51.125-22.935 51.125-51.125-22.934-51.125-51.125-51.125zm0 82.25c-17.162 0-31.125-13.963-31.125-31.125s13.963-31.125 31.125-31.125 31.125 13.963 31.125 31.125-13.962 31.125-31.125 31.125z"/><path d="m293.376 40.026c-28.19 0-51.125 22.935-51.125 51.125s22.935 51.125 51.125 51.125 51.125-22.935 51.125-51.125-22.934-51.125-51.125-51.125zm0 82.25c-17.162 0-31.125-13.963-31.125-31.125s13.963-31.125 31.125-31.125 31.125 13.963 31.125 31.125-13.962 31.125-31.125 31.125z"/><path d="m293.376 369.776c-28.19 0-51.125 22.935-51.125 51.125s22.935 51.125 51.125 51.125 51.125-22.935 51.125-51.125-22.934-51.125-51.125-51.125zm0 82.25c-17.162 0-31.125-13.963-31.125-31.125s13.963-31.125 31.125-31.125 31.125 13.963 31.125 31.125-13.962 31.125-31.125 31.125z"/><path d="m91.125 204.901c-28.19 0-51.125 22.935-51.125 51.125 0 28.191 22.935 51.125 51.125 51.125s51.125-22.935 51.125-51.125c0-28.191-22.934-51.125-51.125-51.125zm0 82.25c-17.162 0-31.125-13.963-31.125-31.125s13.963-31.125 31.125-31.125 31.125 13.962 31.125 31.125-13.962 31.125-31.125 31.125z"/><path d="m293.376 204.901c-28.19 0-51.125 22.935-51.125 51.125 0 28.191 22.935 51.125 51.125 51.125s51.125-22.935 51.125-51.125c0-28.191-22.934-51.125-51.125-51.125zm0 82.25c-17.162 0-31.125-13.963-31.125-31.125s13.963-31.125 31.125-31.125 31.125 13.962 31.125 31.125-13.962 31.125-31.125 31.125z"/><path d="m172.25 266.034c5.523 0 10-4.477 10-10v-.008c0-5.523-4.477-9.996-10-9.996s-10 4.481-10 10.004 4.477 10 10 10z"/></g></g></svg>