<svg id="Layer_1" enable-background="new 0 0 512.001 512.001" height="512" viewBox="0 0 512.001 512.001" width="512" xmlns="http://www.w3.org/2000/svg"><g><g><path d="m502.001 466h-10v-381.72c11.639-4.128 20-15.243 20-28.28 0-16.542-13.458-30-30-30h-452.002c-16.542 0-29.999 13.458-29.999 30 0 13.036 8.36 24.152 19.999 28.28v381.72h-9.999c-5.522 0-10 4.477-10 10s4.478 10 10 10h200.997c5.522 0 10-4.477 10-10s-4.478-10-10-10h-130.998v-379.999h30.001v247.661c-6.132 5.497-9.999 13.472-9.999 22.336 0 16.542 13.458 30 30 30h80c16.542 0 30-13.458 30-30 0-8.864-3.867-16.84-10-22.336v-247.662h51.999v247.66c-6.133 5.497-10 13.472-10 22.337 0 16.542 13.458 30 30 30h80c16.542 0 30-13.458 30-30 0-8.864-3.867-16.84-10-22.336v-247.661h30.001v380h-131.004c-5.522 0-10 4.477-10 10s4.478 10 10 10h201.004c5.522 0 10-4.477 10-10s-4.478-10-10-10zm-472.002-420h452.002c5.514 0 10 4.486 10 10s-4.486 10-10 10h-452.002c-5.514 0-9.999-4.485-9.999-10s4.485-10 9.999-10zm30 420h-20v-380h20zm150.002-100.003h-80c-5.514 0-10-4.486-10-10s4.486-10 10-10h80c5.514 0 10 4.486 10 10s-4.486 10-10 10zm0-40h-80-.001v-239.997h80.001zm171.999 40h-80c-5.514 0-10-4.486-10-10s4.486-10 10-10h80c5.514 0 10 4.486 10 10s-4.486 10-10 10zm0-40h-80v-239.997h80zm70.001-239.997h20v380h-20v-380c0 .001 0 .001 0 0z"/><path d="m256 466h-.007c-5.522 0-9.996 4.477-9.996 10s4.48 10 10.003 10 10-4.477 10-10-4.478-10-10-10z"/></g></g></svg>