<svg id="Layer_1" enable-background="new 0 0 511.996 511.996" height="512" viewBox="0 0 511.996 511.996" width="512" xmlns="http://www.w3.org/2000/svg"><g><g><path d="m384.882 116.954-24.905-48.191c-1.309-2.579-3.256-4.753-5.629-6.286-3.637-2.354-8.103-3.072-12.254-1.971-4.269 1.131-7.917 4.095-10.015 8.142l-10.913 21.116-21.188-40.998c-1.307-2.577-3.253-4.75-5.632-6.29-3.637-2.354-8.104-3.071-12.255-1.97-4.269 1.132-7.916 4.096-10.012 8.141l-10.913 21.117-21.189-41c-1.309-2.58-3.257-4.755-5.63-6.289-3.636-2.353-8.103-3.071-12.253-1.971-4.269 1.131-7.917 4.095-10.015 8.142l-10.914 21.117-21.188-40.999c-1.308-2.579-3.255-4.754-5.631-6.29-3.636-2.353-8.1-3.069-12.254-1.97-4.268 1.131-7.915 4.095-10.014 8.142l-24.965 48.307c-.733 1.419-1.116 2.994-1.116 4.591v420.452c0 16.542 13.458 30 30 30h200c16.542 0 30-13.458 30-30v-360.45c.001-1.598-.382-3.172-1.115-4.592zm-238.884 115.041h220v20.001h-220zm200-146.717 20 38.699v88.018h-40v-88.017zm-60-20 20 38.698v108.019h-40v-108.018zm-60-20.001 20 38.698v128.019h-40v-128.019zm-60-20.001 20 38.699v148.02h-40v-148.02zm190 466.72h-200c-5.514 0-10-4.486-10-10v-10.001h43.346c5.522 0 10-4.477 10-10s-4.478-10-10-10h-43.346v-179.999h220v210c0 5.514-4.486 10-10 10z"/><path d="m285.998 291.997h-60c-22.056 0-40 17.944-40 40s17.944 40 40 40h60c22.056 0 40-17.944 40-40s-17.944-40-40-40zm0 60h-60c-11.028 0-20-8.972-20-20s8.972-20 20-20h60c11.028 0 20 8.972 20 20 0 11.029-8.972 20-20 20z"/><path d="m234.34 451.994c-5.522 0-10 4.477-10 10s4.478 10 10 10h.008c5.522 0 9.996-4.477 9.996-10s-4.482-10-10.004-10z"/></g></g></svg>