<svg id="Layer_1" enable-background="new 0 0 512.019 512.019" height="512" viewBox="0 0 512.019 512.019" width="512" xmlns="http://www.w3.org/2000/svg"><g><g><path d="m503.436 71.533-62.955-62.954c-5.529-5.529-12.901-8.574-20.757-8.574s-15.228 3.045-20.756 8.574l-390.384 390.383c-11.445 11.445-11.445 30.068 0 41.514l62.954 62.954c5.723 5.723 13.24 8.584 20.757 8.584 7.518 0 15.035-2.861 20.757-8.584l390.383-390.383c11.445-11.446 11.445-30.069.001-41.514zm-14.144 27.371-7.528 7.528-41.283-41.283c-11.445-11.445-30.068-11.445-41.514 0l-135.088 135.089c-3.905 3.905-3.905 10.237 0 14.143 1.953 1.953 4.512 2.929 7.071 2.929s5.119-.976 7.071-2.929l135.089-135.089c3.646-3.647 9.582-3.647 13.229 0l41.283 41.283-15.956 15.956-14.75-14.75c-3.906-3.905-10.237-3.905-14.142 0-3.906 3.905-3.906 10.237 0 14.142l14.75 14.751-15.956 15.956-7.679-7.679c-3.905-3.905-10.237-3.905-14.143 0s-3.905 10.237 0 14.143l7.679 7.679-15.956 15.956-7.679-7.679c-3.905-3.905-10.237-3.905-14.143 0s-3.905 10.237 0 14.143l7.679 7.679-15.956 15.956-14.75-14.75c-3.905-3.905-10.237-3.905-14.143 0s-3.905 10.237 0 14.143l14.75 14.75-15.956 15.956-7.678-7.679c-3.904-3.905-10.237-3.905-14.142 0s-3.906 10.237 0 14.142l7.679 7.679-15.956 15.956-7.679-7.679c-3.905-3.905-10.237-3.905-14.143 0s-3.905 10.237 0 14.143l7.679 7.679-15.956 15.956-14.75-14.75c-3.905-3.905-10.237-3.905-14.143 0s-3.905 10.237 0 14.143l14.75 14.75-15.956 15.956-7.679-7.679c-3.905-3.905-10.237-3.905-14.143 0s-3.905 10.237 0 14.143l7.679 7.679-15.956 15.956-7.678-7.679c-3.904-3.905-10.237-3.905-14.142 0s-3.906 10.237 0 14.142l7.679 7.679-15.956 15.956-14.75-14.75c-3.905-3.905-10.237-3.905-14.143 0s-3.905 10.237 0 14.143l14.75 14.75-15.956 15.956-7.681-7.68c-3.905-3.905-10.237-3.905-14.143 0s-3.905 10.237 0 14.143l7.679 7.679-15.956 15.956-41.283-41.283c-1.751-1.75-2.715-4.099-2.715-6.614s.964-4.864 2.715-6.615l135.085-135.085c3.905-3.905 3.905-10.237 0-14.143s-10.237-3.905-14.143 0l-135.084 135.085c-5.529 5.529-8.574 12.901-8.573 20.759 0 7.856 3.045 15.227 8.573 20.754l41.283 41.283-7.528 7.528c-3.647 3.647-9.581 3.648-13.229 0l-62.954-62.954c-3.647-3.647-3.647-9.582 0-13.229l390.383-390.382c1.751-1.751 4.1-2.716 6.614-2.716s4.863.965 6.615 2.716l62.954 62.954c3.647 3.648 3.647 9.582-.001 13.229z"/><path d="m239.132 229.127h-.007c-5.523 0-9.996 4.477-9.996 10s4.48 10 10.003 10 10-4.477 10-10-4.477-10-10-10z"/></g></g></svg>