<svg id="Layer_1" enable-background="new 0 0 511.999 511.999" height="512" viewBox="0 0 511.999 511.999" width="512" xmlns="http://www.w3.org/2000/svg"><g><g><path d="m485.029 242.42c-3.189-32.167-14.205-67.699-31.018-100.052-20.969-40.35-49.981-74.56-83.899-98.931-40.113-28.823-85.697-43.437-135.486-43.437-31.891 0-62.512 6.995-91.013 20.791-4.971 2.406-7.05 8.387-4.644 13.358 2.407 4.97 8.386 7.049 13.358 4.644 25.762-12.47 53.452-18.793 82.299-18.793 120.269 0 181.077 92.025 201.638 131.591 31.274 60.179 39.054 128.063 18.096 157.905-7.629 10.866-22.746 9.676-47.571-3.743-.097-.052-.195-.104-.294-.153-15.242-7.596-30.854-5.771-40.744 4.759-10.825 11.526-11.905 29.961-2.688 45.875 5.46 9.426 11.792 29.483 13.63 53.043 1.952 25.025-1.714 46.73-10.323 61.117-9.078 15.171-23.325 22.225-43.527 21.564-62.74-2.05-132.928-36.129-187.753-91.162-56.614-56.828-89.084-127.11-89.084-192.828 0-42.498 13.881-82.588 40.143-115.937 3.417-4.339 2.669-10.626-1.669-14.043-4.339-3.417-10.626-2.669-14.043 1.669-29.066 36.91-44.43 81.279-44.43 128.311 0 70.968 34.595 146.396 94.915 206.943 28.105 28.211 60.867 51.951 94.743 68.653 35.892 17.696 71.732 27.245 106.525 28.382 1.047.034 2.082.051 3.11.051 25.848-.001 45.941-10.792 58.233-31.335 13.739-22.96 14.707-52.339 13.1-72.942-1.831-23.473-8.214-47.618-16.263-61.512-5.465-9.435-3.852-18.1-.041-22.158 3.749-3.991 9.82-4.21 17.106-.619 8.797 4.748 20.425 10.437 32.64 12.572 22.165 3.874 34.34-6.026 40.652-15.013 12.484-17.775 17.563-45.678 14.302-78.57z"/><path d="m215.039 42.606c-24.813 0-45 20.187-45 45s20.187 45 45 45 45-20.187 45-45-20.187-45-45-45zm0 70c-13.785 0-25-11.215-25-25s11.215-25 25-25 25 11.215 25 25-11.214 25-25 25z"/><path d="m122.732 207.098c24.813 0 45-20.187 45-45s-20.187-45-45-45-45 20.187-45 45 20.187 45 45 45zm0-70c13.785 0 25 11.215 25 25s-11.215 25-25 25-25-11.215-25-25 11.215-25 25-25z"/><path d="m129.481 231.848c-24.813 0-45 20.187-45 45s20.187 45 45 45 45-20.187 45-45-20.187-45-45-45zm0 70c-13.785 0-25-11.215-25-25s11.215-25 25-25 25 11.215 25 25-11.214 25-25 25z"/><path d="m154.232 371.348c0 24.813 20.187 45 45 45s45-20.187 45-45-20.187-45-45-45-45 20.187-45 45zm69.999 0c0 13.785-11.215 25-25 25s-25-11.215-25-25 11.215-25 25-25c13.786 0 25 11.215 25 25z"/><path d="m300.482 468.098c24.813 0 45-20.187 45-45s-20.187-45-45-45-45 20.187-45 45 20.187 45 45 45zm0-70c13.785 0 25 11.215 25 25s-11.215 25-25 25-25-11.215-25-25 11.215-25 25-25z"/><path d="m395.601 274.371c3.34 0 6.704-.428 10.034-1.32 11.98-3.21 21.637-11.749 27.19-24.043 5.244-11.609 6.175-25.302 2.624-38.557-3.551-13.254-11.205-24.647-21.551-32.079-10.956-7.871-23.589-10.438-35.568-7.227-23.968 6.422-37.342 34.503-29.814 62.6 6.481 24.192 26.378 40.627 47.085 40.626zm-12.096-83.908c1.615-.433 3.27-.646 4.941-.646 4.624 0 9.38 1.635 13.782 4.797 6.604 4.745 11.542 12.207 13.901 21.013 2.359 8.805 1.815 17.736-1.532 25.147-3.038 6.726-8.06 11.328-14.14 12.957-13.312 3.565-27.95-7.721-32.625-25.164-4.672-17.442 2.358-34.536 15.673-38.104z"/><path d="m109.947 63.86c5.523 0 10-4.477 10-10s-4.477-10-10-10h-.007c-5.523 0-9.996 4.477-9.996 10s4.48 10 10.003 10z"/></g></g></svg>