<svg id="Layer_1" enable-background="new 0 0 512.002 512.002" height="512" viewBox="0 0 512.002 512.002" width="512" xmlns="http://www.w3.org/2000/svg"><g><g><path d="m488.769 335.584c-14.745-15.959-34.996-24.749-57.023-24.749-11.434 0-22.539 2.444-32.624 7.057 2.686-9.989 7.133-17.916 12.123-20.798 4.783-2.761 6.422-8.877 3.66-13.66-2.762-4.782-8.875-6.421-13.66-3.66-10.798 6.234-17.563 18.869-21.247 32.213v-284.096c0-15.379-12.512-27.891-27.891-27.891h-306.325c-25.244 0-45.782 20.538-45.782 45.782v380.435c0 25.244 20.537 45.782 45.781 45.782h235.87c.481.776.952 1.561 1.448 2.325 15.795 24.297 36.415 37.678 58.063 37.678 12.287 0 24.194-4.279 35.393-12.717 8.541-6.432 11.857-5.396 22.344 1.837 10.467 7.219 21.518 10.88 32.847 10.88 21.647 0 42.268-13.381 58.063-37.678 14.104-21.697 22.193-48.851 22.193-74.499-.001-25.211-8.252-48.026-23.233-64.241zm-128.771-307.693v285.218c-6.094-1.493-12.411-2.273-18.835-2.273-22.026 0-42.278 8.789-57.023 24.749-11.025 11.933-18.388 27.446-21.518 44.851h-202.62v-20.001h51.782c5.523 0 10-4.477 10-10s-4.477-10-10-10h-51.782v-320.435h292.105c4.351 0 7.891 3.54 7.891 7.891zm-339.998 17.891c0-12.229 8.56-22.489 20.001-25.12v360.143c-7.348.93-14.16 3.602-20.001 7.597zm25.782 406.217c-14.216 0-25.782-11.566-25.782-25.782s11.565-25.782 25.781-25.782h215.137c.086 17.239 3.81 35.125 10.548 51.564zm427.258 11.424c-11.807 18.163-26.857 28.579-41.294 28.579-7.196 0-14.427-2.471-21.491-7.344-6.051-4.173-13.994-9.653-24.05-9.653-6.364 0-13.575 2.196-21.686 8.307-7.651 5.766-15.51 8.69-23.356 8.69-14.437 0-29.487-10.417-41.294-28.579-11.873-18.265-18.962-42.04-18.962-63.598 0-39.975 25.341-68.989 60.256-68.989 14.652 0 27.996 5.057 38.589 14.625 3.809 3.438 9.6 3.438 13.406 0 10.592-9.567 23.936-14.624 38.588-14.624 34.915 0 60.256 29.014 60.256 68.989-.001 21.557-7.089 45.333-18.962 63.597z"/><path d="m150 193.535h120c11.028 0 20-8.972 20-20v-60c0-11.028-8.972-20-20-20h-120c-11.028 0-20 8.972-20 20v60c0 11.028 8.972 20 20 20zm120-80v60h-120l-.002-60z"/><path d="m156.78 340.434c-5.523 0-10 4.477-10 10s4.477 10 10 10h.007c5.523 0 9.997-4.477 9.997-10s-4.481-10-10.004-10z"/></g></g></svg>