<svg id="Layer_1" enable-background="new 0 0 512.002 512.002" height="512" viewBox="0 0 512.002 512.002" width="512" xmlns="http://www.w3.org/2000/svg"><g><g><path d="m256.001 290c55.141 0 100-44.86 100-100s-44.859-100-100-100-100 44.86-100 100 44.859 100 100 100zm0-180c44.112 0 80 35.888 80 80s-35.888 80-80 80-80-35.888-80-80 35.888-80 80-80z"/><path d="m211.001 221.754 40 23.094c1.547.893 3.273 1.34 5 1.34s3.453-.447 5-1.34l40-23.094c3.094-1.786 5-5.087 5-8.66v-46.188c0-3.573-1.906-6.874-5-8.66l-40-23.094c-3.094-1.787-6.906-1.787-10 0l-40 23.094c-3.094 1.786-5 5.087-5 8.66v46.188c0 3.573 1.906 6.874 5 8.66zm15-49.075 30-17.32 30 17.32v34.641l-30 17.321-30-17.321z"/><path d="m438.283 243.75c5.122-17.387 7.718-35.428 7.718-53.75 0-104.767-85.233-190-190-190s-190 85.233-190 190c0 33.962 9.072 67.295 26.235 96.394 15.654 26.539 37.626 48.973 63.775 65.19-.001.14-.011.278-.011.418v20h-20c-16.542 0-30 13.458-30 30v11.007c-22.795 4.646-40 24.847-40 48.994 0 27.57 22.43 50 50 50h280c27.57 0 50-22.43 50-50 0-24.146-17.205-44.348-40-48.994v-11.007c0-7.156-2.522-13.732-6.72-18.894 7.185-6.414 11.72-15.738 11.72-26.105v-52.5h15c11.028 0 20-8.972 20-20v-25c.001-6.398-3.029-12.089-7.717-15.753zm-352.282-53.75c0-93.738 76.262-170 170-170s170 76.262 170 170c0 16.897-2.466 33.518-7.325 49.501h-42.676c-11.027 0-19.999 8.972-19.999 20v25c0 11.028 8.972 20 19.999 20h5.618c-9.313 10.19-19.882 19.282-31.32 26.942-7.002-11.638-19.754-19.442-34.297-19.442h-120c-14.549 0-27.305 7.81-34.305 19.456-46.952-31.389-75.695-84.617-75.695-141.457zm290 182.002h-20v-20c0-.141-.009-.281-.011-.422 12.807-7.93 24.509-17.25 35.011-27.871v33.293c0 8.271-6.729 15-15 15zm50 90c0 16.542-13.458 30-30 30h-280c-16.542 0-30-13.458-30-30s13.458-30 30-30h280c16.542 0 30 13.458 30 30zm-40-60.001v10h-260v-10c0-5.514 4.486-10 10-10h75.004c5.522 0 10-4.477 10-10s-4.478-10-10-10h-35.004v-20c0-11.028 8.972-20 20-20h120c11.028 0 20 8.972 20 20v20h-34.996c-5.522 0-10 4.477-10 10s4.478 10 10 10h74.996c5.514.001 10 4.487 10 10zm40-117.499h-50l-.003-25h.002 50.001z"/><path d="m266.001 190.003v-.007c0-5.523-4.478-9.997-10-9.997s-10 4.481-10 10.004 4.478 10 10 10 10-4.477 10-10z"/><path d="m386.001 462.005c0 5.523 4.478 10 10 10s10-4.477 10-10v-.007c0-5.523-4.478-9.997-10-9.997s-10 4.481-10 10.004z"/><path d="m116.001 452.001c-5.522 0-10 4.481-10 10.004s4.478 10 10 10 10-4.477 10-10v-.007c0-5.523-4.478-9.997-10-9.997z"/><path d="m256.009 372.002h-.008c-5.522 0-9.996 4.477-9.996 10s4.481 10 10.004 10 10-4.477 10-10-4.478-10-10-10z"/></g></g></svg>