<svg id="Layer_1" enable-background="new 0 0 512.064 512.064" height="512" viewBox="0 0 512.064 512.064" width="512" xmlns="http://www.w3.org/2000/svg"><g><g><path d="m497.811 49.557c-16.541-16.54-40.429-32.363-62.343-41.293-25.603-10.435-46.138-10.971-59.91-1.688-9.253-3.068-18.699-5.173-28.199-6.234-3.593-.403-7.117 1.166-9.226 4.098-42.082 58.478-80.414 104.598-123.378 148.377-11.743-10.097-29.546-9.567-40.703 1.59-10.936 10.936-11.668 28.259-2.185 40-5.799 5.372-11.788 10.83-18.105 16.504-28.486.212-55.739-2.04-71.26-7.409-3.845-1.331-8.114-.197-10.794 2.865s-3.237 7.444-1.408 11.079l14.506 28.836-22.598 25.776c-2.571 2.932-3.202 7.091-1.618 10.655.892 2.007 2.408 3.597 4.247 4.632-4.93 4.139-9.922 8.326-15.017 12.598-14.685 12.314-29.87 25.048-45.99 38.666-2.548 2.152-3.855 5.434-3.485 8.749 1.06 9.498 3.165 18.943 6.232 28.194-9.265 13.735-8.752 34.206 1.621 59.747 8.921 21.967 24.77 45.92 41.361 62.512 6.34 6.339 15.596 14.253 26.093 14.252 1.515 0 3.057-.165 4.618-.523 13.611-3.124 18.958-18.52 23.674-32.103.343-.986.68-1.959 1.016-2.913 10.512 3.823 21.303 6.403 32.165 7.615.371.042.742.062 1.11.062 2.925 0 5.727-1.284 7.638-3.547 13.601-16.1 26.319-31.267 38.619-45.934 4.232-5.047 8.389-10.003 12.49-14.888.551.397 1.131.76 1.767 1.043 1.304.58 2.687.863 4.061.862 2.381 0 4.735-.85 6.594-2.48l25.776-22.598 28.836 14.506c3.634 1.828 8.016 1.272 11.079-1.408s4.195-6.948 2.865-10.794c-4.965-14.354-7.265-38.741-7.416-64.857 6.937-7.762 13.558-15.041 20.049-22.042 4.559 2.707 9.777 4.152 15.222 4.152h.064c7.995-.017 15.515-3.144 21.175-8.804 5.661-5.661 8.788-13.181 8.804-21.175.012-5.783-1.611-11.31-4.639-16.067 43.92-43.151 90.149-81.596 148.822-123.819 2.932-2.11 4.498-5.636 4.097-9.226-1.212-10.862-3.792-21.653-7.615-32.165.955-.336 1.927-.674 2.914-1.016 13.583-4.717 28.979-10.063 32.103-23.674 2.842-12.382-6.474-23.459-13.729-30.713zm-309.617 118.992c3.899-3.899 10.217-3.925 14.083-.059l30.967 30.967c-.178.171-.36.334-.535.509l-4.421 4.421c-4.875.959-10.184 1.824-15.811 2.586l-24.341-24.34c-3.868-3.867-3.841-10.185.058-14.084zm83.674 126.1 3.941 3.941c-1.494 1.611-2.993 3.233-4.502 4.875.163-2.961.349-5.904.561-8.816zm-4.515-60.039-13.098 13.098c-5.652 5.653-14.85 5.653-20.502 0-5.653-5.652-5.653-14.85 0-20.502l13.097-13.098c2.827-2.827 6.539-4.239 10.251-4.239s7.425 1.413 10.251 4.239c2.719 2.719 4.217 6.359 4.217 10.251s-1.497 7.532-4.216 10.251zm-161.654 8.704-7.958-15.82c31.932 5.012 77.394 4.385 113.282-.138-.979 3.229-1.487 6.624-1.487 10.1 0 2.374.241 4.71.702 6.981-34.176 17.429-87.888 22.34-118.001 23.704l12.047-13.742c2.686-3.061 3.245-7.446 1.415-11.085zm-20.649 229.561c-1.82 5.241-3.702 10.661-5.788 14.596-2.144 4.043-3.459 4.572-3.464 4.574-.03.012-3.537.183-12.097-8.378-14.825-14.825-28.993-36.242-36.974-55.895-3.304-8.136-5.368-15.524-6.223-21.938 6.949 11.639 15.504 22.637 25.505 32.638 12.256 12.256 26.006 22.346 40.605 29.96-.531 1.485-1.053 2.972-1.564 4.443zm84.116-51.008c-11.213 13.372-22.777 27.161-35.031 41.684-26.417-4.25-53.116-18.351-73.985-39.221-20.869-20.869-34.97-47.568-39.221-73.984 14.543-12.271 28.35-23.85 41.74-35.078 11.181-9.376 21.935-18.397 32.355-27.179 31.941-1.516 86.894-6.907 124.053-25.701-20.242 40.018-24.941 100.669-25.992 130.993-7.753 9.211-15.699 18.684-23.919 28.486zm68.98-46.105c-3.638-1.83-8.023-1.271-11.086 1.414l-13.742 12.048c1.364-30.114 6.278-83.823 23.706-118.001 2.271.462 4.605.702 6.979.702 3.476 0 6.871-.508 10.1-1.487-4.523 35.889-5.151 81.35-.137 113.282zm74.765-82.495c-1.894 1.895-4.406 2.94-7.074 2.946-.007 0-.014 0-.021 0-2.644 0-5.125-1.025-6.987-2.888l-24.341-24.341c.763-5.627 1.627-10.936 2.586-15.812l4.421-4.421c.175-.175.339-.357.509-.535l30.967 30.967c1.868 1.867 2.893 4.356 2.887 7.008-.005 2.669-1.052 5.181-2.947 7.076zm4.68-37.748-26.356-26.356c.217-1.579.334-3.182.334-4.805 0-9.234-3.578-17.897-10.075-24.394-5.465-5.465-12.322-8.709-19.44-9.733 14.06-14.517 28.022-29.7 41.63-45.305 3.63-4.163 3.198-10.479-.964-14.109s-10.479-3.199-14.109.964c-14.86 17.04-30.142 33.573-45.509 49.249l-14.139-14.139c42.518-43.316 80.528-88.819 121.874-145.883 26.256 4.345 52.754 18.4 73.494 39.141 20.741 20.74 34.796 47.238 39.141 73.495-57.061 41.345-102.557 79.348-145.881 121.875zm174.458-179.731c-.004.013-.533 1.328-4.576 3.472-3.935 2.086-9.354 3.968-14.596 5.788-1.471.511-2.959 1.033-4.443 1.563-7.614-14.599-17.704-28.349-29.96-40.604-10.001-10.002-20.999-18.557-32.639-25.506 6.454.861 13.893 2.945 22.086 6.283 19.607 7.991 40.969 22.135 55.748 36.915 8.562 8.562 8.384 12.066 8.38 12.089z"/><path d="m325.115 93.917h-.007c-5.523 0-9.997 4.477-9.997 10s4.48 10 10.003 10 10-4.477 10-10-4.476-10-9.999-10z"/></g></g></svg>