<svg id="Layer_1" enable-background="new 0 0 512 512" height="512" viewBox="0 0 512 512" width="512" xmlns="http://www.w3.org/2000/svg"><g><g><path d="m455.998 0c-16.542 0-30 13.458-30 30v35.998h-20v-10c0-16.542-13.458-30-30-30-7.678 0-14.688 2.902-20 7.663-5.312-4.761-12.322-7.663-20-7.663s-14.688 2.902-20 7.663c-5.312-4.761-12.322-7.663-20-7.663-16.542 0-30 13.458-30 30v10h-20v-10c0-16.542-13.458-30-30-30s-30 13.458-30 30v10h-20v-10c0-16.542-13.458-30-30-30-7.678 0-14.688 2.902-20 7.663-5.312-4.761-12.322-7.663-20-7.663-3.54 0-6.937.621-10.093 1.752-1.152-15.494-14.119-27.75-29.904-27.75-16.542 0-30 13.458-30 30v180.997c0 5.523 4.477 10 10 10s10-4.477 10-10v-180.997c0-5.514 4.486-10 10-10s10 4.486 10 10v452c0 5.514-4.486 10-10 10s-10-4.486-10-10v-181.003c0-5.523-4.477-10-10-10s-10 4.477-10 10v181.003c0 16.542 13.458 30 30 30 15.784 0 28.751-12.256 29.906-27.75 3.156 1.131 6.553 1.752 10.093 1.752 7.678 0 14.688-2.902 20-7.663 5.312 4.761 12.322 7.663 20 7.663s14.688-2.902 20-7.663c5.312 4.761 12.322 7.663 20 7.663 16.542 0 30-13.458 30-30v-10h20v10c0 16.542 13.458 30 30 30 7.678 0 14.688-2.902 20-7.663 5.312 4.761 12.322 7.663 20 7.663 16.542 0 30-13.458 30-30v-10h60v10c0 16.542 13.458 30 30 30 3.54 0 6.937-.621 10.093-1.752 1.156 15.494 14.123 27.75 29.907 27.75 16.542 0 29.999-13.458 29.999-30v-452c-.001-16.542-13.459-30-30.001-30zm-79.999 266.001c-7.678 0-14.688 2.902-20 7.663-5.312-4.761-12.322-7.663-20-7.663-16.542 0-30 13.458-30 30v10h-59.999v-10c0-16.542-13.458-30-30-30-7.678 0-14.688 2.902-20 7.663-5.312-4.761-12.322-7.663-20-7.663s-14.688 2.902-20 7.663c-5.312-4.761-12.322-7.663-20-7.663-16.542 0-30 13.458-30 30v10h-20v-61.722c3.13 1.11 6.494 1.72 10 1.72 16.542 0 30-13.458 30-30v-10h20v10c0 16.542 13.458 30 30 30 7.678 0 14.688-2.902 20-7.663 5.312 4.761 12.322 7.663 20 7.663 16.542 0 30-13.458 30-30v-10h60v10c0 16.542 13.458 30 30 30 7.678 0 14.688-2.902 20-7.663 5.312 4.761 12.322 7.663 20 7.663s14.688-2.902 20-7.663c5.312 4.761 12.322 7.663 20 7.663 3.505 0 6.87-.61 10-1.72v61.721h-20v-10c-.001-16.541-13.459-29.999-30.001-29.999zm-29.999 70c0 5.514-4.486 10-10 10s-10-4.486-10-10v-40c0-5.514 4.486-10 10-10 5.514 0 10 4.486 10 10zm20-40c0-5.514 4.486-10 10-10s10 4.486 10 10v40c0 5.514-4.486 10-10 10s-10-4.486-10-10zm-219.999 40c0 5.514-4.486 10-10 10s-10-4.486-10-10v-40c0-5.514 4.486-10 10-10 5.514 0 10 4.486 10 10zm20-40c0-5.514 4.486-10 10-10s10 4.486 10 10v40c0 5.514-4.486 10-10 10s-10-4.486-10-10zm39.999 0c0-5.514 4.486-10 10-10s10 4.486 10 10v40c0 5.514-4.486 10-10 10s-10-4.486-10-10zm-119.999-120.001c0-5.514 4.486-10 10-10s10 4.486 10 10v40c0 5.514-4.486 10-10 10s-10-4.486-10-10zm119.999 0c0-5.514 4.486-10 10-10s10 4.486 10 10v40c0 5.514-4.486 10-10 10s-10-4.486-10-10zm-20 40c0 5.514-4.486 10-10 10s-10-4.486-10-10v-40c0-5.514 4.486-10 10-10 5.514 0 10 4.486 10 10zm239.999 0c0 5.514-4.486 10-10 10s-10-4.486-10-10v-40c0-5.514 4.486-10 10-10s10 4.486 10 10zm-40 0c0 5.514-4.486 10-10 10s-10-4.486-10-10v-40c0-5.514 4.486-10 10-10s10 4.486 10 10zm-39.999 0c0 5.514-4.486 10-10 10s-10-4.486-10-10v-40c0-5.514 4.486-10 10-10 5.514 0 10 4.486 10 10zm30-170.002c5.514 0 10 4.486 10 10v40c0 5.514-4.486 10-10 10s-10-4.486-10-10v-40c0-5.514 4.485-10 10-10zm-40 0c5.514 0 10 4.486 10 10v40c0 5.514-4.486 10-10 10s-10-4.486-10-10v-40c0-5.514 4.485-10 10-10zm-50 10c0-5.514 4.486-10 10-10 5.514 0 10 4.486 10 10v40c0 5.514-4.486 10-10 10s-10-4.486-10-10zm-80 0c0-5.514 4.486-10 10-10h.001c5.514 0 10 4.486 10 10v40c0 5.514-4.486 10-10 10s-10-4.486-10-10v-40zm-20 30v10c0 16.542 13.458 30 30 30s30-13.458 30-30v-10h20v10c0 16.542 13.458 30 30 30 7.678 0 14.688-2.902 20-7.663 5.312 4.761 12.322 7.663 20 7.663s14.688-2.902 20-7.663c5.312 4.761 12.322 7.663 20 7.663 16.542 0 30-13.458 30-30v-10h20v61.722c-3.13-1.11-6.494-1.72-10-1.72-7.678 0-14.688 2.902-20 7.663-5.312-4.761-12.322-7.663-20-7.663s-14.688 2.902-20 7.663c-5.312-4.761-12.322-7.663-20-7.663-16.542 0-30 13.458-30 30v10h-60v-10c0-16.542-13.458-30-30-30-7.678 0-14.688 2.902-20 7.663-5.312-4.761-12.322-7.663-20-7.663-16.542 0-30 13.458-30 30v10h-20v-10c0-16.542-13.458-30-30-30-3.505 0-6.87.61-10 1.72v-23.442c3.13 1.11 6.494 1.72 10 1.72 7.678 0 14.688-2.902 20-7.663 5.312 4.761 12.322 7.663 20 7.663 16.542 0 30-13.458 30-30v-10zm-49.999-40c5.514 0 10 4.486 10 10v40c0 5.514-4.486 10-10 10s-10-4.486-10-10v-40c0-5.514 4.486-10 10-10zm-40 0c5.514 0 10 4.486 10 10v40c0 5.514-4.486 10-10 10s-10-4.486-10-10v-40c0-5.514 4.486-10 10-10zm0 420.004c-5.514 0-10-4.486-10-10v-40c0-5.514 4.486-10 10-10s10 4.486 10 10v40c0 5.514-4.486 10-10 10zm40 0c-5.514 0-10-4.486-10-10v-40c0-5.514 4.486-10 10-10s10 4.486 10 10v40c0 5.514-4.486 10-10 10zm49.999-10c0 5.514-4.486 10-10 10s-10-4.486-10-10v-40c0-5.514 4.486-10 10-10s10 4.486 10 10zm70 10c-5.514 0-10-4.486-10-10v-40c0-5.514 4.486-10 10-10 5.514 0 10 4.486 10 10v40c0 5.514-4.486 10-10 10zm50-10c0 5.514-4.486 10-10 10s-10-4.486-10-10v-40c0-5.514 4.486-10 10-10s10 4.486 10 10zm20-30v-10c0-16.542-13.458-30-30-30-7.678 0-14.688 2.902-20 7.663-5.312-4.761-12.322-7.663-20-7.663-16.542 0-30 13.458-30 30v10h-20v-10c0-16.542-13.458-30-30-30-7.678 0-14.688 2.902-20 7.663-5.312-4.761-12.322-7.663-20-7.663s-14.688 2.902-20 7.663c-5.312-4.761-12.322-7.663-20-7.663-3.505 0-6.87.61-10 1.72v-61.721h20v10c0 16.542 13.458 30 30 30 7.678 0 14.688-2.902 20-7.663 5.312 4.761 12.322 7.663 20 7.663s14.688-2.902 20-7.663c5.312 4.761 12.322 7.663 20 7.663 16.542 0 30-13.458 30-30v-10h60v10c0 16.542 13.458 30 30 30 7.678 0 14.688-2.902 20-7.663 5.312 4.761 12.322 7.663 20 7.663 16.542 0 30-13.458 30-30v-10h20v61.722c-3.13-1.11-6.494-1.72-10-1.72-16.542 0-30 13.458-30 30v10h-60zm89.999 40c-5.514 0-10-4.486-10-10v-40c0-5.514 4.486-10 10-10s10 4.486 10 10v40c0 5.514-4.486 10-10 10zm49.999 15.998c0 5.514-4.486 10-10 10s-10-4.486-10-10v-452c0-5.514 4.486-10 10-10h.001c5.513 0 9.999 4.486 9.999 10z"/><path d="m36.002 266c5.523 0 10-4.477 10-10v-.008c0-5.523-4.477-9.996-10-9.996s-10 4.481-10 10.004 4.477 10 10 10z"/></g></g></svg>