<svg id="Layer_1" enable-background="new 0 0 512.002 512.002" height="512" viewBox="0 0 512.002 512.002" width="512" xmlns="http://www.w3.org/2000/svg"><g><g><path d="m296.002 240.001c5.522 0 10-4.477 10-10v-.008c0-5.523-4.478-9.996-10-9.996s-10 4.481-10 10.004 4.478 10 10 10z"/><path d="m215.999 240.001c5.523 0 10-4.477 10-10v-.008c0-5.523-4.477-9.996-10-9.996s-10 4.481-10 10.004 4.477 10 10 10z"/><path d="m274.208 288.804c-4.863 4.863-11.329 7.542-18.208 7.542-6.878 0-13.344-2.678-18.208-7.542-3.905-3.905-10.237-3.905-14.143 0s-3.905 10.237 0 14.143c8.641 8.641 20.13 13.399 32.35 13.399 12.221 0 23.709-4.759 32.35-13.4 3.905-3.905 3.905-10.237 0-14.142-3.904-3.906-10.236-3.906-14.141 0z"/><path d="m425.389 361.452c9.044-18.616 7.323-38.007 4.286-50.997-2.728-11.672-9.073-23.38-15.209-34.702-6.958-12.839-14.107-26.04-14.458-36.935 14.947-3.985 25.993-17.631 25.993-33.817 0-9.513-3.82-18.147-10-24.461v-20.54c0-42.571-16.688-82.705-46.992-113.008-30.303-30.304-70.436-46.992-113.008-46.992s-82.706 16.688-113.009 46.991-46.991 70.437-46.991 113.009v20.539c-6.18 6.315-10 14.949-10 24.462 0 16.186 11.046 29.832 25.993 33.817-.351 10.895-7.5 24.096-14.458 36.935-6.137 11.323-12.482 23.031-15.21 34.703-3.037 12.992-4.757 32.388 4.291 51.005 7.123 14.656 19.336 25.699 36.366 32.982-23.849 29.957-36.982 67.43-36.982 105.557v2.001c0 5.523 4.477 10 10 10h320c5.522 0 10-4.477 10-10v-2.001c0-38.126-13.132-75.601-36.981-105.558 17.033-7.285 29.247-18.33 36.369-32.99zm-50.759 17.079c-15.292-14.908-33.268-26.862-52.807-35.157 30.188-16.243 53.971-43.255 65.857-75.967 2.771 6.009 6.003 11.974 9.202 17.875 5.761 10.629 11.201 20.669 13.318 29.725 4.263 18.235 4.981 50.047-35.57 63.524zm-37.984 48.203-22.294 9.779c-3.17 1.39-5.396 4.321-5.884 7.748-.487 3.427.831 6.862 3.487 9.083l24.306 20.315-22.013 18.343h-25.579l30.547-128.007c5.399 2.502 10.608 5.304 15.609 8.385zm-92.751 65.268-18.692-78.332h61.597l-18.692 78.332zm-46.14 0-22.014-18.343 24.306-20.315c2.656-2.22 3.975-5.656 3.487-9.083s-2.714-6.358-5.884-7.748l-22.295-9.779 1.823-54.36c5.001-3.079 10.209-5.881 15.607-8.382l30.547 128.009h-25.577zm95.81-137.19c2.297.597 4.571 1.241 6.818 1.937l-8.811 36.922h-71.142l-8.811-36.922c2.247-.696 4.52-1.341 6.816-1.937 11.992 3.38 24.597 5.19 37.565 5.19 12.969-.001 25.573-1.81 37.565-5.19zm-37.564-334.812c77.197 0 140 62.804 140 140v10.363c-1.634-.235-3.302-.363-5-.363h-5.001c-28.111 0-55.785-5.334-77.922-15.021-21.152-9.256-36.433-22.082-43.026-36.116-1.648-3.508-5.176-5.748-9.051-5.748s-7.402 2.24-9.051 5.747c-6.594 14.035-21.875 26.861-43.027 36.117-22.137 9.687-49.81 15.021-77.922 15.021h-5c-1.698 0-3.366.128-5 .363v-10.363c0-3.364.127-6.699.361-10.004 17.014-.036 33.421-.414 51.624-4.414 5.394-1.186 8.806-6.52 7.621-11.914-1.186-5.395-6.521-8.805-11.914-7.621-15.278 3.358-29.188 3.862-44.442 3.938 13.777-62.82 69.854-109.985 136.75-109.985zm-150 185c0-8.271 6.729-15 15-15h5c31.257 0 60.974-5.774 85.939-16.699 19.028-8.326 33.976-19.083 44.061-31.59 10.084 12.508 25.032 23.264 44.06 31.59 24.966 10.925 54.683 16.699 85.939 16.699h5.001c8.271 0 15 6.729 15 15s-6.729 15-15 15h-5.385c-5.226 0-9.569 4.022-9.971 9.232-4.781 62.113-57.336 110.768-119.645 110.768s-114.863-48.655-119.645-110.768c-.401-5.21-4.746-9.232-9.971-9.232h-5.384c-8.27.001-14.999-6.728-14.999-15zm-4.199 110.007c2.116-9.056 7.558-19.095 13.318-29.725 3.199-5.902 6.431-11.867 9.202-17.876 11.886 32.712 35.669 59.725 65.857 75.968-19.538 8.295-37.514 20.249-52.805 35.157-40.552-13.476-39.835-45.287-35.572-63.524zm54.856 72.553-1.518 45.276c-.137 4.089 2.231 7.85 5.978 9.493l13.722 6.019-21.118 17.651c-2.275 1.902-3.589 4.715-3.587 7.68s1.32 5.777 3.599 7.675l12.779 10.649h-60.302c2.159-41.139 20.899-78.391 50.447-104.443zm188.832 104.442 12.779-10.649c2.278-1.898 3.597-4.71 3.599-7.675s-1.312-5.778-3.587-7.68l-21.117-17.651 13.721-6.019c3.747-1.643 6.115-5.403 5.978-9.493l-1.517-45.268c29.545 26.055 48.285 63.308 50.447 104.435z"/><path d="m211.001 279.997c19.768 0 36.89-11.532 45-28.22 8.11 16.688 25.232 28.22 45 28.22 27.57 0 50.001-22.43 50.001-50s-22.431-50-50.001-50c-19.768 0-36.89 11.532-45 28.221-8.11-16.688-25.232-28.221-45-28.221-27.57 0-50 22.43-50 50s22.43 50 50 50zm89.999-80c16.543 0 30.001 13.458 30.001 30s-13.458 30-30.001 30c-16.542 0-30-13.458-30-30s13.458-30 30-30zm-89.999 0c16.542 0 30 13.458 30 30s-13.458 30-30 30-30-13.458-30-30 13.458-30 30-30z"/><path d="m207.535 128.856c5.523 0 10-4.477 10-10s-4.477-10-10-10h-.007c-5.523 0-9.996 4.477-9.996 10s4.48 10 10.003 10z"/></g></g></svg>