<svg id="Layer_1" enable-background="new 0 0 511.971 511.971" height="512" viewBox="0 0 511.971 511.971" width="512" xmlns="http://www.w3.org/2000/svg"><g><g><path d="m445.257 325.347-81.657-304.75c0-.001-.001-.002-.001-.004-1.647-6.141-7.719-16.882-29.882-19.846-13.448-1.8-30.064-.321-46.79 4.16-33.579 8.998-64.461 29.704-58.566 51.882.004.014.005.029.009.043l81.657 304.75c3.877 14.467 20.997 20.564 41.758 20.564 11.088 0 23.218-1.741 34.915-4.875 33.601-9.002 64.504-29.729 58.557-51.924zm-188.724-284.806c8.577-6.61 21.541-12.556 35.569-16.315 10.331-2.768 20.753-4.22 29.817-4.22 3.244 0 6.315.187 9.145.565 9.174 1.227 12.917 4.087 13.217 5.203v.001c.298 1.117-1.515 5.465-8.845 11.114-8.576 6.61-21.541 12.556-35.569 16.315-14.029 3.759-28.229 5.092-38.962 3.655-9.173-1.227-12.916-4.086-13.216-5.202v-.001c-.298-1.119 1.514-5.466 8.844-11.115zm160.561 301.097c-8.576 6.609-21.541 12.556-35.569 16.315-2.435.653-4.875 1.227-7.302 1.732l-13.152-49.087c-1.43-5.335-6.913-8.503-12.247-7.071-5.335 1.429-8.501 6.913-7.071 12.247l12.421 46.36c-4.158.116-8.075-.051-11.611-.524-9.174-1.228-12.918-4.088-13.217-5.204l-75.127-280.382c1.282.248 2.625.469 4.035.658 3.735.5 7.714.747 11.873.747 10.813 0 22.837-1.67 34.917-4.907 17.651-4.729 34.548-12.697 45.76-22.41l75.136 280.411c.298 1.116-1.514 5.465-8.846 11.115z"/><path d="m197.49 237.399c-33.597-9.003-70.725-6.505-76.673 15.689l-54.147 202.083c-1.646 6.141-1.762 18.48 15.954 32.133 10.745 8.281 25.875 15.31 42.602 19.792 11.699 3.135 23.826 4.875 34.916 4.875 20.758 0 37.881-6.099 41.758-20.565.001-.006.002-.011.004-.017l54.144-202.066c5.946-22.195-24.957-42.921-58.558-51.924zm-28.126 254.033c-10.729 1.438-24.932.104-38.962-3.655-14.028-3.759-26.992-9.706-35.569-16.315-7.33-5.649-9.142-9.997-8.844-11.114v-.001c.3-1.116 4.044-3.975 13.216-5.202 2.83-.378 5.899-.564 9.145-.564 9.063 0 19.487 1.452 29.817 4.22 14.028 3.759 26.992 9.706 35.569 16.315 7.321 5.642 9.138 9.985 8.845 11.108l-.002.006c0 .001 0 .002-.001.004-.305 1.118-4.05 3.973-13.214 5.198zm67.365-207.286-47.627 177.745c-11.211-9.713-28.108-17.681-45.759-22.41-16.726-4.481-33.34-5.958-46.79-4.16-1.409.189-2.752.409-4.035.658l47.618-177.713c.299-1.116 4.043-3.977 13.217-5.204 10.734-1.436 24.933-.103 38.962 3.655 14.028 3.759 26.993 9.706 35.569 16.315 7.332 5.65 9.144 9.998 8.845 11.114z"/><path d="m349.425 267.138c-1.423-5.337-6.906-8.508-12.237-7.082-5.337 1.423-8.508 6.906-7.085 12.243 1.192 4.473 5.235 7.426 9.656 7.426.853 0 1.72-.11 2.583-.34 5.336-1.423 8.509-6.903 7.085-12.239z"/></g></g></svg>