<svg id="Layer_1" enable-background="new 0 0 512.01 512.01" height="512" viewBox="0 0 512.01 512.01" width="512" xmlns="http://www.w3.org/2000/svg"><g><g><path d="m449.358 361.404c-3.996-6.921-10.467-11.876-18.222-13.954-7.754-2.078-15.838-1.021-22.758 2.974l-25.982 15-10.192-17.653c40.096-26.954 66.532-72.732 66.532-124.572 0-82.71-67.29-150-150-150-23.734 0-46.193 5.55-66.162 15.406l-10.178-17.629 25.982-15.001c6.92-3.995 11.876-10.467 13.955-18.223 2.078-7.755 1.022-15.838-2.974-22.758-8.271-14.325-26.653-19.251-40.98-10.98l-34.642 20c-53.205 30.718-91.262 80.316-107.163 139.658s-7.741 121.323 22.977 174.527c19.355 33.523 46.211 61.026 78.272 80.769-5.056 10.369-8.251 21.566-9.43 33.043h-2.362c-16.542 0-30 13.457-30 29.999v20c0 5.522 4.477 10 10 10h240c5.523 0 10-4.478 10-10v-20c0-16.542-13.458-29.999-30-29.999h-42.828c31.513-3.359 62.263-13.305 90.532-29.626l34.642-20.001c6.921-3.995 11.877-10.467 13.955-18.223 2.078-7.754 1.022-15.837-2.974-22.757zm-46.426-76.127c-.012-.007-.024-.015-.036-.022-13.633-8.258-24.401-14.781-50.016-15.246-9.401-.171-14.565-5.784-15.385-10.928-1.079-6.768 5.046-13.331 15.983-17.128 24.949-8.662 35.943-25.978 46.577-42.723 3.859-6.077 7.595-11.949 11.945-17.36 4.366 12.989 6.737 26.886 6.737 41.328 0 22.468-5.731 43.622-15.805 62.079zm.295-123.608c-8.384 8.471-14.303 17.782-20.056 26.841-9.6 15.118-17.891 28.174-36.253 34.549-24.77 8.602-31.197 26.476-29.174 39.17 2.513 15.774 17.137 27.456 34.772 27.776 19.95.363 27.065 4.513 39.502 12.044-16.158 21.114-38.627 37.155-64.571 45.264.445-29.67-18.741-46.533-38.853-52.626-6.854-2.076-15.849-1.766-26.264-1.411-16.291.561-36.569 1.256-40.228-8.906-2.008-5.577 6.747-13.9 15.212-21.95 6.678-6.349 13.582-12.913 17.857-20.434 7.393-13.006 3.736-23.623-.633-30.239-13.37-20.247-34.154-14.395-52.491-9.23-12.744 3.588-26.95 7.57-42.469 5.91 7.358-64.752 62.469-115.227 129.156-115.227 49.439-.001 92.515 27.739 114.493 68.469zm-199.941 129.475c8.595 23.876 38.15 22.857 59.731 22.121 7.914-.272 16.096-.552 19.777.563 10.618 3.217 27.144 12.389 24.353 38.061-6.017.857-12.161 1.31-18.411 1.31-69.916 0-127.107-55.48-129.885-124.727 18.694 1.715 35.038-2.881 48.618-6.705 20.023-5.637 25.687-6.107 30.38 1.001 4.007 6.067-.06 11.604-14.315 25.157-11.884 11.301-26.676 25.364-20.248 43.219zm162.745 190.866v10h-220v-10c0-5.514 4.486-9.999 10-9.999h200.001c5.514 0 9.999 4.485 9.999 9.999zm-187.509-29.999c1.043-8.069 3.336-15.94 6.802-23.304 13.875 6.946 28.551 12.546 43.884 16.655 11.843 3.173 23.79 5.381 35.752 6.649zm254.492-73.025c-.695 2.595-2.342 4.753-4.636 6.078l-34.642 20.001c-48.577 28.047-105.169 35.497-159.352 20.979-54.182-14.519-99.467-49.267-127.513-97.845-57.897-100.281-23.416-228.967 76.865-286.866l34.642-20c4.775-2.755 10.903-1.114 13.66 3.66 1.325 2.294 1.671 4.986.976 7.582-.695 2.595-2.342 4.754-4.636 6.078l-34.642 20.001c-75.274 43.459-111.463 132.188-88.004 215.772 1.492 5.317 7.012 8.419 12.33 6.926 5.317-1.492 8.418-7.013 6.926-12.33-20.082-71.554 8.707-147.32 70.237-187.79l10.043 17.395c-40.096 26.954-66.532 72.732-66.532 124.571 0 82.71 67.29 150 150 150 23.734 0 46.192-5.549 66.161-15.405l10.03 17.372c-65.82 33.053-145.833 20.099-197.759-33.077-3.858-3.951-10.189-4.027-14.141-.168-3.952 3.858-4.027 10.189-.168 14.141 60.657 62.118 155.597 75.148 230.878 31.683l34.642-20c4.774-2.757 10.903-1.115 13.661 3.66 1.323 2.294 1.669 4.986.974 7.582z"/><path d="m132.852 303.2h-.008c-5.523 0-9.996 4.478-9.996 10s4.481 10 10.004 10 10-4.478 10-10-4.477-10-10-10z"/></g></g></svg>