<svg id="Layer_1" enable-background="new 0 0 512.002 512.002" height="512" viewBox="0 0 512.002 512.002" width="512" xmlns="http://www.w3.org/2000/svg"><g><g><path d="m376.001 220.153c-19.096 0-29.148-2.391-33.613-7.993-4.45-5.584-5.906-16.797-6.277-32.009h9.89c11.028 0 20-8.972 20-20v-50c0-11.028-8.972-20-20-20h-53.262l-3.506-58.252c-1.095-18.185-15.059-31.899-32.482-31.899-17.424 0-31.388 13.714-32.482 31.899l-3.506 58.252h-54.762c-11.028 0-20 8.972-20 20v50c0 11.028 8.972 20 20 20h9.889c-.371 15.207-1.827 26.416-6.268 31.999-4.462 5.609-14.518 8.003-33.622 8.003-16.542 0-30 13.458-30 30v231.849c0 16.542 13.458 30 30 30h240c16.542 0 30-13.458 30-30v-231.849c.001-16.542-13.457-30-29.999-30zm-250 205.924h44.996c5.523 0 10-4.478 10-10s-4.477-10-10-10h-44.996v-125.923h260v25.923h-60c-11.028 0-20 8.972-20 20v80.001c0 11.027 8.972 19.999 20 19.999h60v25.924h-260zm260-20-60 .001v-80.001h60zm-140-295.926v50h-31.502v-50zm20 0h31.501v50h-31.501zm80 50h-28.499v-50h28.498zm-101.768-127.05c.449-7.469 5.831-13.101 12.518-13.101s12.068 5.632 12.518 13.101l3.433 57.051h-31.903zm-78.234 77.05h28.5v50h-28.498zm-29.999 130.002c19.167 0 38.402-1.884 49.274-15.553 7.859-9.88 10.147-24.042 10.62-44.449h120.212c.473 20.419 2.762 34.589 10.641 44.475 10.876 13.646 30.1 15.527 49.253 15.527 5.514 0 10 4.486 10 10v10.001h-260v-10.001c.001-5.513 4.487-10 10-10zm240.001 251.849h-240.001c-5.514 0-10-4.486-10-10v-10.001h260v10.001c.001 5.514-4.485 10-9.999 10z"/><path d="m215.994 406.077c-5.523 0-10 4.478-10 10s4.477 10 10 10h.007c5.523 0 9.997-4.478 9.997-10s-4.481-10-10.004-10z"/></g></g></svg>