<svg id="Layer_1" enable-background="new 0 0 511.986 511.986" height="512" viewBox="0 0 511.986 511.986" width="512" xmlns="http://www.w3.org/2000/svg"><g><g><path d="m504.509 70.583-63.108-63.108c-9.969-9.967-26.186-9.967-36.154 0l-157.265 157.265c-3.905 3.905-3.905 10.237 0 14.143 3.906 3.905 10.237 3.904 14.143 0l93.623-93.623 70.977 70.977-250.89 250.89-70.977-70.976 93.628-93.628c3.905-3.905 3.905-10.237 0-14.143s-10.236-3.904-14.143 0l-157.262 157.262c-3.309 3.302-5.644 7.525-6.75 12.206l-19.567 82.425c-.989 3.937-1.017 8.108-.079 12.075 2.772 11.72 13.266 19.638 24.824 19.638 1.939 0 3.909-.223 5.876-.688l81.074-19.246c5.285-.875 10.073-3.338 13.876-7.141l378.174-378.174c9.968-9.968 9.968-26.187 0-36.154zm-134.618.534 14.143-14.143 70.977 70.977-14.143 14.143zm-208.199 350.152-14.143 14.143-70.976-70.977 14.143-14.143zm-49.501 49.5c-1.077 1.077-2.288 1.447-3.114 1.568-.29.042-.577.098-.862.165l-81.442 19.334c-2.955.699-5.927-1.138-6.625-4.09-.208-.879-.202-1.76.018-2.619.014-.055.027-.109.041-.165l19.586-82.504c.252-1.067.742-1.987 1.423-2.667l21.214-21.214 70.977 70.977zm378.175-378.175-21.214 21.214-70.977-70.977 21.214-21.214c1.051-1.051 2.448-1.63 3.935-1.63s2.884.579 3.935 1.63l63.107 63.107c2.17 2.171 2.17 5.701 0 7.87z"/><path d="m195.081 316.904c5.849 5.849 13.531 8.772 21.213 8.772 7.683 0 15.365-2.925 21.213-8.772l98.995-98.995c11.697-11.697 11.697-30.729 0-42.427-11.698-11.698-30.73-11.696-42.427 0l-98.995 98.995c-11.697 11.697-11.697 30.73.001 42.427zm14.142-28.284 98.995-98.995c1.949-1.949 4.51-2.925 7.071-2.925s5.121.976 7.07 2.925c3.899 3.898 3.899 10.243 0 14.142l-98.995 98.995c-3.898 3.897-10.243 3.899-14.142 0-3.898-3.899-3.898-10.244.001-14.142z"/><path d="m223.234 213.633c2.4 0 4.808-.859 6.724-2.601l.005-.005c4.086-3.715 4.385-10.037.67-14.124-3.714-4.085-10.042-4.385-14.128-.67s-4.388 10.039-.673 14.126c1.974 2.172 4.683 3.274 7.402 3.274z"/></g></g></svg>