<svg id="Layer_1" enable-background="new 0 0 512.001 512.001" height="512" viewBox="0 0 512.001 512.001" width="512" xmlns="http://www.w3.org/2000/svg"><g><g><path d="m446.001 279.502c0-17.921-14.579-32.5-32.499-32.5h-10v-81.686c4.847-1.666 9.264-4.522 12.776-8.377 5.34-5.861 7.89-13.272 7.181-20.87l-10.001-107c-1.548-16.572-14.427-29.069-29.957-29.069h-195c-15.529 0-28.408 12.497-29.957 29.069l-9.153 97.93h-53.391c-16.542 0-30 13.458-30 30v20 83.752c0 28.26 22.991 51.251 51.251 51.251h31.251v180c0 11.027 8.972 19.999 20 19.999h20c11.028 0 20-8.972 20-19.999v-139.999h155 .001v139.999c0 11.027 8.972 19.999 19.999 19.999h20.001c11.028 0 20-8.972 20-19.999v-181.581c13.04-4.228 22.498-16.487 22.498-30.919zm-82.501-32.5v-80.003h20.002v80.003zm-154.925-60.003v60.003h-20.001v-60.003zm20 0h87.425c5.522 0 10-4.478 10-10v-10h17.5v80.003h-114.925zm-50.117-156.068c.507-5.432 4.121-10.931 10.043-10.931h195c5.923 0 9.536 5.499 10.043 10.931l10.001 106.998c.23 2.466-.988 4.374-2.052 5.541-2.013 2.21-5 3.529-7.991 3.529h-69.223c-4.128-11.639-15.243-20-28.28-20h-126.519zm-92.458 126.068c0-5.514 4.486-10 10-10h200c5.514 0 10 4.486 10 10v10h-220zm0 103.752v-73.752h82.574v60.003h-10.072c-17.921 0-32.5 14.58-32.5 32.501 0 4.427.893 8.649 2.503 12.499h-11.255c-17.231 0-31.25-14.02-31.25-31.251zm102.501 231.25-20 .001v-180h20zm195.001.001v-180h20v179.999zm30-200h-82.496c-5.522 0-10 4.478-10 10s4.478 10 10 10h32.496v20.001h-.001-155v-20.001h32.505c5.522 0 10-4.478 10-10s-4.478-10-10-10h-82.505c-6.893 0-12.5-5.607-12.5-12.5s5.607-12.5 12.5-12.5h255.001c6.892 0 12.499 5.608 12.499 12.501 0 6.892-5.607 12.499-12.499 12.499z"/><path d="m286.009 292.002h-.007c-5.522 0-9.996 4.478-9.996 10s4.48 10 10.003 10 10-4.478 10-10-4.477-10-10-10z"/></g></g></svg>