<svg id="Layer_1" enable-background="new 0 0 512.002 512.002" height="512" viewBox="0 0 512.002 512.002" width="512" xmlns="http://www.w3.org/2000/svg"><g><g><path d="m330.001 266.001c0-5.522-4.478-10-10-10h-84.996c-5.522 0-10 4.478-10 10s4.478 10 10 10h74.996v140h-240.001v-140h75.005c5.522 0 10-4.478 10-10s-4.478-10-10-10h-85.005c-5.522 0-10 4.478-10 10v160c0 5.522 4.478 10 10 10h260.001c5.522 0 10-4.478 10-10z"/><path d="m512.002 122.002c0-13.036-8.361-24.152-20-28.28v-11.721c0-30.879-25.121-56-56-56h-40.002c-30.879 0-56 25.121-56 56v11.721c-11.639 4.128-20 15.243-20 28.28v13.999c0 7.678 2.902 14.688 7.663 20-4.761 5.311-7.663 12.321-7.663 19.999v30.001h-30v-50c0-16.542-13.457-30-29.999-30h-140.001c-16.542 0-30 13.458-30 30v50h-40c-27.57 0-50 22.43-50 50v179.999c0 27.57 22.43 50.001 50 50.001h280 132.002c27.57 0 50-22.43 50-50v-260.001c0-7.678-2.902-14.688-7.663-19.999 4.761-5.312 7.663-12.322 7.663-20zm-116.002-76.001h40.002c19.851 0 36 16.149 36 36v10.001h-112.002v-10.001c0-19.851 16.149-36 36-36zm-56 76.001c0-5.514 4.486-10 10-10h132.002c5.514 0 10 4.486 10 10v13.999c0 5.514-4.486 10-10 10h-132.002c-5.514 0-10-4.486-10-10zm-230 33.999c0-5.514 4.486-10 10-10h140.001c5.514 0 9.999 4.486 9.999 10v50h-20v-30c0-5.522-4.478-10-10-10h-100c-5.522 0-10 4.478-10 10v30h-20zm120 50h-80v-20h80zm-210 229.999v-179.999c0-16.542 13.458-30 30-30h280c16.542 0 30 13.458 30 30v179.999c0 16.543-13.458 30.001-30 30.001h-280c-16.542 0-30-13.458-30-30.001zm472.002.001c0 16.542-13.458 30-30 30h-92.03c6.293-8.363 10.028-18.753 10.028-30.001v-179.999c0-24.146-17.205-44.348-40-48.994v-31.007c0-5.514 4.486-9.999 10-9.999h132.002c5.514 0 10 4.485 10 9.999z"/><path d="m190.008 276.001c5.522 0 10-4.478 10-10s-4.478-10-10-10h-.007c-5.522 0-9.996 4.478-9.996 10s4.48 10 10.003 10z"/></g></g></svg>