<svg id="Layer_1" enable-background="new 0 0 512 512" height="512" viewBox="0 0 512 512" width="512" xmlns="http://www.w3.org/2000/svg"><g><g><path d="m467.288 66-109.998.003c-.008 0-.016 0-.024 0-8.149 0-16.13 2.826-22.473 7.958-45.884 37.124-112.046 37.214-157.266.258-6.395-5.301-14.496-8.22-22.81-8.22h-110.005c-24.654.001-44.712 20.058-44.712 44.713v290.575c0 24.655 20.058 44.713 44.713 44.713l109.998-.004h.024c8.149 0 16.13-2.825 22.473-7.957 45.884-37.124 112.046-37.215 157.264-.262 6.394 5.303 14.495 8.223 22.812 8.223h110.005c24.653 0 44.711-20.058 44.711-44.712v-290.576c0-24.655-20.058-44.712-44.712-44.712zm-42.057 219.999h-154.231c-5.523 0-10 4.478-10 10s4.477 10 10 10h139.923c-12.63 12.361-29.898 20.001-48.925 20.001h-341.998v-20.002h161c5.523 0 10-4.478 10-10s-4.477-10-10-10h-161v-20.001h411.273c-1.015 7.06-3.08 13.782-6.042 20.002zm-405.231-40.001v-59.998h341.998c35.202 0 64.405 26.122 69.274 59.997h-411.272zm472 155.29c0 13.627-11.086 24.712-24.712 24.712h-110.005c-3.718 0-7.191-1.251-10.1-3.663-26.253-21.455-58.538-32.179-90.915-32.179-32.456 0-65.003 10.78-91.641 32.332-2.835 2.294-6.255 3.506-9.899 3.506-.004 0-.008 0-.012 0l-110.004.004c-13.395 0-24.712-11.317-24.712-24.712v-55.288h341.998c49.626 0 90-40.374 90-90.001 0-49.626-40.374-89.999-90-89.999h-341.998v-55.288c0-13.395 11.317-24.712 24.712-24.712h110.005c3.717 0 7.191 1.251 10.1 3.662 52.569 42.962 129.344 42.899 182.556-.152 2.835-2.294 6.255-3.506 9.899-3.506h.011l110.005-.004c13.395 0 24.712 11.317 24.712 24.712z"/><path d="m226.003 206.001h-.007c-5.523 0-9.997 4.478-9.997 10s4.481 10 10.004 10 10-4.478 10-10-4.477-10-10-10z"/><path d="m226.003 305.999c5.523 0 10-4.478 10-10s-4.477-10-10-10h-.007c-5.523 0-9.996 4.478-9.996 10s4.48 10 10.003 10z"/></g></g></svg>