<svg id="Layer_1" enable-background="new 0 0 512.024 512.024" height="512" viewBox="0 0 512.024 512.024" width="512" xmlns="http://www.w3.org/2000/svg"><g><g><path d="m503.746 36.561-28.284-28.284c-10.631-10.63-27.174-11.06-41.168-1.066l-49.498 35.355c-6.042 4.315-9.724 10.985-10.369 18.781-.151 1.827-.124 3.662.056 5.481l-63.572 63.573c-1.663-.44-3.389-.688-5.158-.688-5.351 0-10.373 2.076-14.143 5.846l-56.569 56.569c-5.22 5.221-6.927 12.63-5.157 19.299l-62.023 62.023c-3.905 3.905-3.905 10.237 0 14.143 1.953 1.953 4.512 2.929 7.071 2.929s5.119-.977 7.071-2.929l60.11-60.109 42.426 42.425-183.852 183.854-42.426-42.426 60.104-60.104c3.905-3.905 3.905-10.237 0-14.143s-10.236-3.904-14.143 0l-61.315 61.314c-3.983-1.898-8.377-2.902-12.931-2.902-8.029 0-15.563 3.112-21.213 8.763-5.65 5.652-8.763 13.185-8.763 21.214 0 8.028 3.112 15.562 8.763 21.213l56.568 56.569c5.651 5.65 13.185 8.763 21.214 8.763 8.029-.001 15.563-3.113 21.213-8.764 5.65-5.65 8.762-13.185 8.762-21.213 0-4.555-1.004-8.949-2.902-12.932l186.977-186.977c1.663.44 3.389.688 5.158.688 5.35 0 10.373-2.076 14.142-5.846l56.569-56.569c5.22-5.221 6.927-12.629 5.157-19.299l63.566-63.566c1.003.099 2.012.151 3.021.151.822 0 1.646-.033 2.467-.102 7.796-.646 14.466-4.328 18.781-10.369l35.355-49.498c9.995-13.991 9.566-30.535-1.065-41.167zm-129.05 100.766c1.953 1.952 4.512 2.929 7.071 2.929s5.119-.977 7.071-2.929l22.983-22.983 14.142 14.142-56.571 56.57-42.426-42.425 56.571-56.571 14.142 14.142-22.983 22.983c-3.905 3.905-3.905 10.237 0 14.142zm-281.08 351.792c-3.899 3.899-10.243 3.899-14.142 0l-56.568-56.569c-3.899-3.898-3.899-10.243 0-14.142 1.873-1.873 4.384-2.905 7.071-2.905s5.197 1.032 7.07 2.905l56.57 56.569c1.873 1.873 2.904 4.384 2.904 7.07s-1.032 5.199-2.905 7.072zm212.138-226.28-56.564-56.563c-.002-.002-.003-.003-.005-.005l56.568-56.568 56.564 56.563.005.005zm182.784-196.735-35.355 49.498c-.866 1.212-2.264 1.905-4.156 2.063-3.088.249-6.678-1.079-8.919-3.321l-42.428-42.427c-2.243-2.242-3.577-5.827-3.321-8.92.156-1.892.85-3.29 2.062-4.155l49.497-35.355c2.666-1.903 6.148-3.45 9.432-3.45 2.176 0 4.265.68 5.969 2.384l28.284 28.284c4.278 4.276 2.1 10.969-1.065 15.399z"/><path d="m242.439 283.711c3.715-4.086 3.414-10.411-.673-14.126l-.005-.005c-4.086-3.715-10.408-3.411-14.124.675-3.715 4.087-3.411 10.414.676 14.129 1.916 1.742 4.323 2.601 6.724 2.601 2.719-.001 5.429-1.103 7.402-3.274z"/><path d="m210.62 315.53c3.715-4.086 3.414-10.411-.673-14.126l-.005-.005c-4.085-3.715-10.408-3.411-14.124.675-3.715 4.087-3.411 10.414.676 14.129 1.916 1.742 4.323 2.601 6.724 2.601 2.719-.001 5.429-1.103 7.402-3.274z"/><path d="m171.403 350.624c2.414 0 4.835-.869 6.755-2.629 4.071-3.731 4.346-10.058.614-14.128l-.005-.006c-3.731-4.071-10.055-4.344-14.126-.611-4.071 3.731-4.344 10.061-.612 14.131 1.972 2.152 4.669 3.243 7.374 3.243z"/><path d="m139.581 382.443c2.559 0 5.119-.977 7.071-2.929 3.905-3.905 3.905-10.237 0-14.143l-.005-.005c-3.905-3.905-10.235-3.902-14.14.003s-3.903 10.239.002 14.145c1.953 1.952 4.513 2.929 7.072 2.929z"/><path d="m100.359 397.533c-3.715 4.087-3.411 10.414.676 14.129 1.916 1.742 4.323 2.601 6.724 2.601 2.719 0 5.429-1.103 7.402-3.273 3.715-4.086 3.414-10.411-.673-14.126l-.005-.005c-4.086-3.717-10.408-3.412-14.124.674z"/><path d="m143.111 322.344c2.559 0 5.118-.977 7.071-2.929l.005-.005c3.905-3.905 3.903-10.234-.002-14.14-3.905-3.905-10.238-3.903-14.144.002-3.905 3.905-3.905 10.237 0 14.143 1.952 1.953 4.511 2.929 7.07 2.929z"/></g></g></svg>