<svg id="Layer_1" enable-background="new 0 0 512.01 512.01" height="512" viewBox="0 0 512.01 512.01" width="512" xmlns="http://www.w3.org/2000/svg"><g><g><path d="m492.006 320h-6.001v-290c0-16.542-13.458-30-30-30h-400c-16.542 0-30 13.458-30 30v290h-6.001c-11.028 0-20 8.973-20 20.001v20c0 11.028 8.972 20 20 20h92.286l-25.263 94.284c-2.067 7.735-.998 15.813 3.01 22.743 4.008 6.931 10.475 11.887 18.21 13.953 2.576.688 5.189 1.029 7.787 1.028 5.2 0 10.333-1.365 14.956-4.039 6.931-4.008 11.886-10.475 13.951-18.203l7.976-29.766h206.178l7.974 29.759c4.268 15.969 20.728 25.487 36.696 21.221 15.967-4.267 25.486-20.729 21.218-36.702l-25.262-94.278h92.286c11.027 0 19.999-8.972 19.999-20v-20c-.001-11.028-8.972-20.001-20-20.001zm-446.001-290c0-5.514 4.486-10 10-10h400c5.514 0 10 4.486 10 10v290h-20v-270c0-5.522-4.478-10-10-10h-135.004c-5.522 0-10 4.478-10 10s4.478 10 10 10h125.004v260h-20.002v-20c0-11.027-8.972-19.999-19.999-19.999h-60.001c-11.028 0-20 8.972-20 19.999v20h-219.998v-260h124.997c5.523 0 10-4.478 10-10s-4.477-10-10-10h-134.997c-5.523 0-10 4.478-10 10v270h-20zm339.998 290h-60v-19.999l60-.001zm19.659 159.448c1.42 5.313-1.748 10.791-7.061 12.211-5.315 1.418-10.792-1.749-12.213-7.067l-9.962-37.178c-1.171-4.372-5.133-7.412-9.659-7.412h-221.524c-4.526 0-8.488 3.04-9.659 7.412l-9.964 37.185c-.688 2.573-2.336 4.726-4.643 6.059-2.306 1.334-4.994 1.691-7.567 1.002-2.574-.688-4.726-2.337-6.06-4.643-1.333-2.307-1.689-4.994-1.003-7.562l26.648-99.454h20.652l-7.345 27.413c-.805 3.003-.167 6.209 1.726 8.676 1.893 2.466 4.825 3.912 7.934 3.912h200.088c3.109 0 6.041-1.446 7.934-3.912 1.893-2.467 2.53-5.673 1.726-8.676l-7.346-27.413h20.652zm-68.005-99.447 5.36 20.001h-174.024l5.359-20.001zm-317.642-20h-.01v-20.001l472.001.001.001 20z"/><path d="m176.003 140c-16.542 0-30 13.458-30 30v60c0 5.522 4.477 10 10 10s10-4.478 10-10v-20.001h19.999v20.001c0 5.522 4.477 10 10 10s10-4.478 10-10v-60c.001-16.542-13.457-30-29.999-30zm10 49.999h-19.999v-19.999c0-5.514 4.486-10 10-10s10 4.486 10 10z"/><path d="m336.006 240c16.542 0 30-13.457 30-29.999 0-5.522-4.478-10-10-10s-10 4.478-10 10c0 5.514-4.486 9.999-10 9.999s-10-4.485-10-9.999v-40c0-5.515 4.486-10.001 10-10.001s10 4.486 10 10.001c0 5.522 4.478 10 10 10s10-4.478 10-10c0-16.543-13.458-30.001-30-30.001s-30 13.458-30 30.001v40c0 16.542 13.458 29.999 30 29.999z"/><path d="m236.005 240h20c16.542 0 30-13.458 30-30 0-7.677-2.898-14.688-7.657-20 4.759-5.312 7.657-12.323 7.657-20 0-16.542-13.458-30-30-30h-20c-5.523 0-10 4.478-10 10v80c0 5.522 4.477 10 10 10zm20-20h-10v-20h10c5.514 0 10 4.486 10 10s-4.486 10-10 10zm0-60c5.514 0 10 4.486 10 10s-4.485 10-10 10h-10v-20z"/><path d="m256.005 60c5.523 0 10-4.478 10-10s-4.477-10-10-10h-.007c-5.523 0-9.996 4.478-9.996 10s4.48 10 10.003 10z"/></g></g></svg>