<svg id="Layer_1" enable-background="new 0 0 512.002 512.002" height="512" viewBox="0 0 512.002 512.002" width="512" xmlns="http://www.w3.org/2000/svg"><g><g><path d="m256 260c71.683 0 130-58.317 130-130s-58.317-130-130-130-130 58.317-130 130 58.318 130 130 130zm-88.699-194.977c21.515 20.058 49.382 32.304 78.7 34.586v20.391h-99.541c1.851-20.442 9.316-39.287 20.841-54.977zm198.24 54.977h-99.541v-20.391c29.318-2.281 57.185-14.527 78.7-34.585 11.525 15.69 18.99 34.534 20.841 54.976zm-20.841 74.976c-21.515-20.057-49.382-32.303-78.7-34.584v-20.392h99.541c-1.851 20.442-9.316 39.286-20.841 54.976zm-98.7 44.565c-25.223-2.284-48.015-13.114-65.448-29.57 17.883-16.839 41.026-27.251 65.448-29.499zm20-59.07c24.422 2.248 47.565 12.66 65.449 29.499-17.433 16.457-40.225 27.287-65.449 29.571zm0-100.941v-59.071c25.224 2.284 48.016 13.115 65.449 29.571-17.883 16.84-41.026 27.252-65.449 29.5zm-20 0c-24.422-2.248-47.565-12.661-65.448-29.5 17.433-16.456 40.225-27.287 65.448-29.571zm0 60.47v20.392c-29.318 2.281-57.185 14.527-78.699 34.585-11.525-15.69-18.99-34.534-20.841-54.977z"/><path d="m426 310.001c0-16.542-13.457-29.999-29.999-29.999h-95.004c-5.522 0-10 4.478-10 10s4.478 10 10 10h95.004c5.514 0 9.999 4.485 9.999 9.999s-4.485 10-9.999 10h-280.001c-5.514 0-9.999-4.486-9.999-10s4.485-9.999 9.999-9.999h94.997c5.522 0 10-4.478 10-10s-4.478-10-10-10h-94.997c-16.542 0-29.999 13.457-29.999 29.999 0 14.428 10.238 26.507 23.831 29.359 21.399 37.735 48.169 94.284 48.169 162.642 0 5.522 4.478 10 10 10s10-4.478 10-10c0-3.626-.091-7.209-.226-10.769l78.225-35.322 78.225 35.322c-.135 3.56-.226 7.143-.226 10.769 0 5.522 4.478 10 10 10s10-4.478 10-10c0-68.358 26.771-124.907 48.169-162.642 13.594-2.852 23.832-14.931 23.832-29.359zm-69.759 78.703-13.235 5.976-62.705-28.314 58.387-26.365h40.266c-7.67 14.204-15.645 30.513-22.713 48.703zm-200.48 0c-7.068-18.19-15.043-34.499-22.713-48.703h40.266l58.387 26.365-62.705 28.314zm66.152-48.703h68.175l-34.088 15.392zm34.088 37.337 62.705 28.314-62.705 28.314-62.705-28.314zm-79.815 92.668c-2.057-18.36-5.747-35.708-10.449-51.909l3.259-1.472 62.705 28.314zm104.115-25.067 62.705-28.314 3.259 1.472c-4.702 16.201-8.392 33.549-10.449 51.909z"/><path d="m255.994 280.002c-5.522 0-9.996 4.478-9.996 10s4.48 10 10.003 10 10-4.478 10-10-4.478-10-10-10z"/></g></g></svg>