<svg id="Layer_1" enable-background="new 0 0 512.001 512.001" height="512" viewBox="0 0 512.001 512.001" width="512" xmlns="http://www.w3.org/2000/svg"><g><g><path d="m479.384 103.599 25.136-25.136c9.968-9.968 9.968-26.187 0-36.154l-34.822-34.822c-4.828-4.828-11.248-7.487-18.076-7.487-6.829 0-13.249 2.659-18.077 7.487l-25.137 25.136-21.081-21.081c-3.771-3.77-8.793-5.846-14.143-5.846s-10.372 2.076-14.143 5.846l-21.213 21.213c-3.77 3.771-5.846 8.793-5.846 14.143s2.076 10.372 5.846 14.143l6.938 6.938-119.067 119.069c-8.298-2.971-17.937-1.165-24.572 5.469l-146.361 146.361c-6.634 6.634-8.44 16.273-5.47 24.571l-8.063 8.063c-3.309 3.303-5.644 7.526-6.749 12.206l-19.567 82.425c-.989 3.938-1.017 8.11-.079 12.074.298 1.262.703 2.469 1.172 3.638l-13.076 13.075c-3.905 3.905-3.905 10.236 0 14.143 1.953 1.952 4.512 2.929 7.071 2.929s5.118-.977 7.071-2.929l13.087-13.086c2.978 1.201 6.19 1.869 9.498 1.869 1.939 0 3.908-.223 5.876-.688l81.076-19.246c5.284-.876 10.072-3.338 13.875-7.141l8.045-8.046c2.521.903 5.209 1.375 7.973 1.375 6.289 0 12.192-2.439 16.622-6.868l117.409-117.408c6.585 2.488 13.506 3.706 20.401 3.706 15.018 0 29.905-5.773 40.89-16.758l120.352-120.354c11.17-11.171 17.129-26.243 16.781-41.961l11.502-11.502c7.797-7.798 7.798-20.485.001-28.285zm-31.697-81.969c1.051-1.051 2.448-1.63 3.935-1.63 1.485 0 2.883.579 3.934 1.63l34.822 34.821c1.051 1.051 1.63 2.448 1.63 3.935s-.579 2.884-1.63 3.935l-25.136 25.136-42.692-42.691zm-74.504 4.054.001.002 113.137 113.137-21.212 21.213-113.138-113.138zm56.703 127.413-117.468 117.467-70.976-70.976 117.468-117.466zm-303.54 303.54c-1.078 1.078-2.29 1.449-3.117 1.57-.289.043-.575.098-.859.165l-81.442 19.333c-2.96.694-5.928-1.138-6.626-4.092-.207-.877-.201-1.758.019-2.617.014-.055.027-.109.04-.165l19.587-82.504c.252-1.066.741-1.986 1.423-2.666l6.468-6.468 70.976 70.976zm32.64-13.539c-.879.88-1.931 1.011-2.479 1.011s-1.6-.131-2.479-1.011l-57.116-57.116 36.452-36.452c3.905-3.905 3.905-10.237 0-14.143-3.906-3.904-10.236-3.904-14.143 0l-36.452 36.452-13.86-13.86c-1.344-1.344-1.344-3.614 0-4.958l146.36-146.361c.672-.672 1.575-1.008 2.479-1.008.903 0 1.808.336 2.479 1.008l85.119 85.119c1.345 1.344 1.345 3.615 0 4.959zm178.699-130.46c-8.136 8.137-19.559 11.882-30.67 10.716l12.474-12.474c6.634-6.634 8.44-16.273 5.47-24.571l119.069-119.069 6.937 6.937c3.77 3.771 8.792 5.847 14.143 5.847.373 0 .74-.034 1.11-.054-1.855 4.554-4.608 8.744-8.18 12.316z"/><path d="m151.039 303.569c-3.905 3.905-3.905 10.237 0 14.143 1.953 1.952 4.512 2.929 7.071 2.929s5.118-.977 7.071-2.929l.006-.006c3.905-3.905 3.902-10.234-.003-14.14-3.904-3.904-10.239-3.901-14.145.003z"/></g></g></svg>