<svg id="Layer_1" enable-background="new 0 0 512.001 512.001" height="512" viewBox="0 0 512.001 512.001" width="512" xmlns="http://www.w3.org/2000/svg"><g><g><path d="m492.001 207.72v-63.438c11.639-4.128 20-15.244 20-28.28 0-16.542-13.458-30-30-30h-359.999c-38.598 0-70 31.401-70 70v39.998c0 19.573 8.084 37.285 21.077 50h-3.079c-38.598 0-70 31.401-70 70v39.999c0 38.599 31.402 70 70 70h359.999c16.542 0 30-13.458 30-30 0-13.036-8.361-24.152-20-28.28v-63.438c11.639-4.128 20-15.244 20-28.281 0-3.506-.61-6.87-1.72-10h23.723c16.542 0 30-13.458 30-30-.001-13.036-8.362-24.152-20.001-28.28zm-249.371-1.72v-19.999h229.371v19.999zm229.371-39.999h-359.998v-9.999c0-5.421 4.579-10 10-10h349.999v19.999zm-274.371 20h25v44.612l-8.439-3.751c-2.585-1.148-5.537-1.148-8.122 0l-8.439 3.751zm-85.627 0h65.627v19.999h-55.627c-5.42 0-10-4.579-10-10zm-40.001 9.999v-39.998c0-27.57 22.43-50 50-50h359.999c5.514 0 10 4.486 10 10s-4.486 10-10 10h-359.999c-16.542 0-30 13.458-30 30v39.998c0 16.542 13.458 30 30 30h55.627v20h-55.627c-27.569 0-50-22.429-50-50zm-12.002 150h65.627v19.999h-55.627c-5.42 0-10-4.579-10-10zm359.999 19.999h-229.372v-19.999h229.371v19.999zm-274.372-19.999h25v44.612l-8.439-3.751c-2.585-1.148-5.537-1.148-8.122 0l-8.439 3.751zm284.372 59.999h-239.372v-20h239.371c5.514 0 10 4.486 10 10s-4.485 10-9.999 10zm10-129.999c0 5.515-4.486 10.001-10 10.001h-134.996c-5.523 0-10 4.478-10 10s4.477 10 10 10h124.995v19.999h-359.998v-10c0-5.42 4.58-9.999 10-9.999h135.003c5.523 0 10-4.478 10-10s-4.477-10-10-10h-135.003c-16.542 0-30 13.457-30 29.999v39.999c0 16.542 13.458 30 30 30h55.626v20h-55.626c-27.57 0-50-22.43-50-50v-39.999c0-27.57 22.43-50 50-50h52.002 307.996c5.515 0 10.001 4.487 10.001 10zm42.002-30h-239.371v-20h239.371c5.514 0 10 4.486 10 10s-4.486 10-10 10z"/><path d="m250.007 306.001c5.523 0 10-4.478 10-10s-4.477-10-10-10h-.007c-5.523 0-9.996 4.478-9.996 10s4.48 10 10.003 10z"/></g></g></svg>