<svg id="Layer_1" enable-background="new 0 0 512.087 512.087" height="512" viewBox="0 0 512.087 512.087" width="512" xmlns="http://www.w3.org/2000/svg"><g><g><path d="m502.446 9.15c-1.555-2.692-4.272-4.509-7.354-4.914-3.085-.407-6.178.644-8.377 2.843-18.286 18.286-39.113 19.051-61.164 19.86-32.757 1.202-69.83 2.571-88.296 68.149l-78.688 83.781c-3.781 4.025-3.583 10.354.443 14.135 4.023 3.782 10.354 3.582 14.135-.443l29.503-31.412 44.139 44.139-295.065 277.127c-7.703 7.235-19.307 7.33-26.419.218-7.112-7.111-7.016-18.717.218-26.42l186.014-198.054c3.781-4.025 3.583-10.354-.443-14.135-4.026-3.782-10.355-3.583-14.135.443l-186.014 198.054c-14.674 15.626-14.578 39.457.219 54.254 7.438 7.438 17.158 11.162 26.972 11.162 9.709-.001 19.511-3.646 27.281-10.944l346.444-325.383c33.739-1.38 62.572-20 81.507-52.796 20.975-36.329 24.793-82.449 9.08-109.664zm-99.508 39.548c14.045 14.281 17.9 26.778 21.966 39.962 4.725 15.327 9.604 31.101 29.892 45.862-10.638 8.903-24.769 16.127-42.965 17.067l-54.372-54.372c10.631-35.379 25.799-45.295 45.479-48.519zm-41.565 142.89-45.026-45.026 30.112-32.061 46.975 46.975zm114.673-82.775c-1.921 3.327-4.365 7.124-7.356 11.05-16.701-11.27-20.135-22.371-24.674-37.096-3.369-10.927-7.065-22.906-16.448-35.889 19.807-.733 41.715-1.827 62.149-16.236 5.73 21.807.61 53.436-13.671 78.171z"/><path d="m235.053 228.513c5.523 0 10-4.478 10-10s-4.477-10-10-10h-.007c-5.523 0-9.996 4.478-9.996 10s4.48 10 10.003 10z"/></g></g></svg>