<svg id="Layer_1" enable-background="new 0 0 512.001 512.001" height="512" viewBox="0 0 512.001 512.001" width="512" xmlns="http://www.w3.org/2000/svg"><g><g><path d="m510.885 91.792-29.176-56.454c-1.395-2.754-3.472-5.075-6.003-6.71-3.854-2.494-8.583-3.254-12.982-2.091-4.533 1.201-8.412 4.356-10.647 8.667l-20.361 39.398-20.292-39.265c-1.394-2.753-3.469-5.072-6.003-6.711-3.854-2.492-8.585-3.253-12.983-2.09-4.533 1.202-8.411 4.356-10.646 8.667l-20.361 39.398-20.293-39.266c-1.394-2.754-3.469-5.074-6.002-6.71-3.854-2.492-8.583-3.253-12.983-2.09-4.533 1.202-8.411 4.356-10.646 8.668l-20.36 39.396-20.292-39.264c-1.395-2.754-3.472-5.075-6.003-6.71-3.854-2.494-8.583-3.254-12.982-2.091-4.533 1.201-8.412 4.356-10.647 8.667l-20.361 39.398-20.292-39.265c-1.395-2.754-3.472-5.075-6.003-6.71-3.854-2.494-8.583-3.254-12.982-2.091-4.533 1.201-8.412 4.356-10.647 8.667l-20.361 39.398-20.292-39.264c-1.394-2.754-3.469-5.073-6.003-6.712-3.854-2.492-8.585-3.253-12.983-2.09-4.533 1.202-8.411 4.356-10.646 8.667l-20.368 39.404-20.292-39.265c-1.396-2.755-3.472-5.075-6.003-6.711-3.854-2.492-8.585-3.253-12.983-2.09-4.533 1.202-8.411 4.356-10.646 8.668l-29.245 56.587c-.733 1.419-1.116 2.994-1.116 4.591v359.613c0 16.542 13.457 30 29.999 30h452.002c16.542 0 30-13.458 30-30v-359.613c0-1.597-.383-3.172-1.116-4.591zm-18.884 7.023v7.569h-50.286v-7.569l7.223-13.977h35.84zm-70.286 0v7.569h-50.286v-7.569l7.223-13.977h35.839zm-70.286 0v7.569h-50.285v-7.57l7.223-13.976h35.839zm-70.285 0v7.569h-50.286v-7.569l7.223-13.977h35.839zm-70.287 0v7.569h-50.286v-7.569l7.223-13.977h35.839zm-70.286 0v7.569h-50.286v-7.569l7.223-13.977h35.839zm-70.286 0v7.569h-50.285v-7.569l7.223-13.977h35.839zm-50.285 27.569h50.285v79.804h-50.285zm70.285 0h50.286v79.804h-50.286zm70.286 0h50.286v79.804h-50.286zm70.286 0h50.286v79.804h-50.286zm70.287 0h50.285v79.804h-50.285zm70.285 0h50.286v79.804h-50.286zm70.286 0h50.286v79.804h-50.286zm25.142-76.22 7.584 14.674h-15.167zm-70.286 0 7.584 14.674h-15.167zm-70.285.001 7.583 14.673h-15.166zm-70.286-.001 7.584 14.674h-15.167zm-70.286 0 7.584 14.674h-15.168zm-70.286 0 7.584 14.674h-15.167zm-70.285.001 7.583 14.673h-15.166zm446.858 405.831c0 5.514-4.486 10-10 10h-452.002c-5.514 0-9.999-4.486-9.999-10v-189.807h191.004c5.522 0 10-4.478 10-10s-4.478-10-10-10h-191.004v-20.001h472.001v20.001h-190.997c-5.522 0-10 4.478-10 10s4.478 10 10 10h190.997z"/><path d="m140.571 336.093v60c0 5.522 4.478 10 10 10h210.859c5.522 0 10-4.478 10-10v-60c0-5.522-4.478-10-10-10h-210.859c-5.522 0-10 4.478-10 10zm20 10h190.859v40h-190.859z"/><path d="m256.008 265.996c5.522 0 10-4.478 10-10s-4.478-10-10-10h-.008c-5.522 0-9.996 4.478-9.996 10 0 5.523 4.481 10 10.004 10z"/></g></g></svg>