<svg id="Layer_1" enable-background="new 0 0 512.003 512.003" height="512" viewBox="0 0 512.003 512.003" width="512" xmlns="http://www.w3.org/2000/svg"><g><g><path d="m511.812 414.815-4.874-39.985c-.008-.063-.023-.123-.031-.185-.021-.147-.047-.294-.075-.442-.035-.188-.075-.375-.12-.559-.016-.064-.024-.129-.042-.193-7.041-26.267-21.928-50.55-41.918-68.376-24.027-21.426-54.595-32.751-88.398-32.751-21.83 0-38.771-2.567-51.979-8.069 1.824-3.696 1.239-8.29-1.804-11.407-3.858-3.952-10.189-4.028-14.141-.17l-1.15 1.122c-1.865-1.625-3.622-3.358-5.265-5.213-3.347-3.778-6.276-8.105-8.806-12.97l.578-.289c4.94-2.47 6.942-8.477 4.472-13.416-2.254-4.51-7.457-6.56-12.106-5.004-1.657-6.32-2.879-13.246-3.676-20.777 5.175-1.02 8.711-5.911 7.965-11.197-.665-4.708-4.512-8.177-9.057-8.559-.07-6.266.086-12.861.476-19.802 5.432-.106 9.804-4.534 9.804-9.99 0-4.896-3.521-8.963-8.168-9.825.244-2.286.5-4.592.786-6.941l3.565-29.779c.731-6.104 2.251-18.807-8.486-27.237-11.388-8.943-36.417-14.723-129.644 20.224-18.007 6.75-33.614 7.409-47.383 7.991-14.584.616-27.18 1.148-37.014 9.201-10.219 8.368-14.874 23.037-15.092 47.563-.447 50.114-12.357 82.125-23.875 113.082-11.034 29.657-22.439 60.326-22.527 104.663l-3.71 39.567c-.711 7.593 1.836 15.003 7.173 20.863 5.823 6.395 14.125 10.063 22.775 10.063h451.827c8.754 0 17.436-3.901 23.224-10.438 5.23-5.904 7.608-13.279 6.696-20.765zm-28.607-48.776h-141.356c3.705-27.984 21.989-55.965 38.67-73.643 55.59 1.738 88.799 38.124 102.686 73.643zm-412.976-208.082c.157-17.562 2.696-28.116 7.765-32.267 4.672-3.826 13.725-4.209 25.187-4.692 14.508-.613 32.564-1.376 53.56-9.247 87.83-32.925 106.607-26.099 110.272-23.22 1.601 1.257 1.585 4.061.979 9.13l-3.563 29.763c-.377 3.105-.708 6.148-1.014 9.159h-23.371c-5.523 0-10 4.478-10 10s4.477 10 10 10h21.814c-.401 7.813-.518 15.252-.363 22.343l-23.787 3.361c-5.469.772-9.275 5.832-8.503 11.301.706 4.994 4.986 8.602 9.889 8.602.466 0 .938-.032 1.412-.1l22.268-3.146c1.084 9.792 2.823 18.759 5.225 26.919l-20.802 10.401c-4.94 2.47-6.942 8.477-4.472 13.416 1.752 3.505 5.284 5.53 8.952 5.53 1.502 0 3.029-.34 4.464-1.058l19.211-9.605c3.308 6.46 7.2 12.228 11.695 17.303 1.889 2.132 3.863 4.101 5.896 5.949l-16.011 15.63c-3.952 3.857-4.028 10.188-.17 14.141 1.959 2.008 4.557 3.015 7.157 3.015 2.519 0 5.04-.946 6.984-2.845l18.743-18.297c14.229 7.465 30.077 10.713 45.291 12.04-16.086 20.465-30.327 47.157-33.221 74.556h-297.677c.3-7.029.909-13.668 1.773-20.002h53.341c5.523 0 10-4.478 10-10s-4.477-10-10-10h-49.631c4.018-17.126 9.709-32.43 15.577-48.201 12.12-32.574 24.652-66.256 25.13-119.879zm419.915 264.363c-2.02 2.28-5.181 3.697-8.251 3.697h-451.827c-2.99 0-5.976-1.319-7.988-3.528-1.062-1.166-2.278-3.071-2.047-5.531l2.899-30.919h465.228l3.802 31.194c.267 2.209-.84 3.986-1.816 5.087z"/><path d="m144.416 258.458c27.57 0 50-22.43 50-50s-22.43-50-50-50-50 22.43-50 50 22.43 50 50 50zm0-80c16.542 0 30 13.458 30 30s-13.458 30-30 30-30-13.458-30-30 13.458-30 30-30z"/><path d="m124.15 326.037c-5.523 0-10 4.478-10 10s4.477 10 10 10h.007c5.523 0 9.997-4.478 9.997-10s-4.481-10-10.004-10z"/></g></g></svg>