<svg id="Layer_1" enable-background="new 0 0 512.002 512.002" height="512" viewBox="0 0 512.002 512.002" width="512" xmlns="http://www.w3.org/2000/svg"><g><g><path d="m416.001 432.002h-164.717v-37h64.717c34.61 0 67.226-13.553 91.837-38.163 24.609-24.61 38.163-57.226 38.163-91.838 0-34.611-13.554-67.226-38.163-91.836-24.61-24.609-57.225-38.163-91.837-38.163h-14.743c-7.216-9.59-17.796-16.512-29.973-18.994v-6.007c0-13.036-8.361-24.151-20-28.279v-24.428c5.968-3.465 10-9.91 10-17.294v-30c0-5.522-4.477-10-10-10h-110c-5.523 0-10 4.478-10 10v30c0 7.384 4.032 13.829 10 17.294v24.428c-11.639 4.128-20 15.243-20 28.279v110.001c0 13.037 8.361 24.152 20 28.28v21.721c0 11.027 8.972 19.999 20 19.999h70c11.028 0 20-8.972 20-19.999v-21.721c11.639-4.128 20-15.243 20-28.28v-6.006c12.177-2.482 22.757-9.404 29.973-18.994h14.743c18.589 0 36.138 7.312 49.413 20.587 13.275 13.274 20.586 30.823 20.586 49.413 0 18.589-7.311 36.138-20.586 49.413s-30.824 20.586-49.413 20.586h-74.719c-5.523 0-10 4.478-10 10s4.477 10 10 10h74.719c5.514 0 10 4.486 10 10 0 5.515-4.486 10.001-10 10.001h-219.999c-5.514 0-10-4.486-10-10.001 0-5.514 4.486-10 10-10h55.279c5.523 0 10-4.478 10-10s-4.477-10-10-10h-55.279c-16.542 0-30 13.458-30 30 0 16.543 13.458 30.001 30 30.001h45.283v37h-45.284c-16.542 0-30 13.458-30 30v40c0 5.522 4.477 10 10 10h360c5.522 0 10-4.478 10-10v-40c0-16.542-13.458-30-30-30zm-254.717-352v-20.002h70v20.002zm-9.999-60.002h90v20h-90zm10 250.003v-20.001h70v20zm80-40.001h-90c-5.514 0-10-4.486-10-10v-110.001c0-5.514 4.486-9.999 10-9.999h90c5.514 0 10 4.485 10 9.999v6.007c-22.794 4.646-40 24.847-40 48.994s17.205 44.348 40 48.994v6.006c0 5.514-4.486 10-10 10zm20-35c-16.542 0-30-13.458-30-30s13.458-30 30-30 30 13.458 30 30-13.458 30-30 30zm81.237 155.998c13.801-4.274 26.477-11.885 37.034-22.443 17.053-17.053 26.444-39.624 26.444-63.555 0-23.932-9.392-46.503-26.443-63.556-17.054-17.053-39.624-26.444-63.556-26.444h-5.722c.659-3.232 1.006-6.576 1.006-10s-.347-6.768-1.006-10h5.722c29.27 0 56.862 11.473 77.694 32.306 20.833 20.832 32.306 48.425 32.306 77.693 0 29.271-11.473 56.863-32.306 77.695-13.669 13.669-30.248 23.308-48.301 28.321.397-1.944.607-3.957.607-6.017 0-5.053-1.262-9.817-3.479-14zm-181.237 44.002h69.999v37h-69.999zm264.716 97h-340v-30c0-5.514 4.486-10 10-10h320c5.514 0 10 4.486 10 10z"/><path d="m206.285 345.001c0-5.522-4.477-10-10-10h-.008c-5.523 0-9.996 4.478-9.996 10s4.481 10 10.004 10 10-4.478 10-10z"/></g></g></svg>