<svg id="Layer_1" enable-background="new 0 0 512.002 512.002" height="512" viewBox="0 0 512.002 512.002" width="512" xmlns="http://www.w3.org/2000/svg"><g><g><path d="m485.795 316.249c-2.45-58.508-26.673-113.109-68.585-154.296-43.278-42.53-100.53-65.952-161.209-65.952s-117.931 23.422-161.209 65.952c-41.912 41.187-66.135 95.788-68.585 154.296-14.757 1.872-26.207 14.496-26.207 29.752v40c0 16.542 13.458 30 30 30h452.002c16.542 0 30-13.458 30-30v-40c0-15.256-11.45-27.88-26.207-29.752zm-80.124-.248c-2.42-36.778-18.07-70.982-44.533-96.987-28.226-27.737-65.563-43.013-105.137-43.013-39.572 0-76.911 15.275-105.136 43.013-26.463 26.004-42.113 60.209-44.534 96.987h-60.081c.564-11.814 2.118-23.382 4.587-34.621l19.049 5.104c.867.232 1.737.344 2.594.344 4.415 0 8.456-2.947 9.653-7.415 1.43-5.334-1.736-10.817-7.071-12.247l-18.992-5.089c3.608-11.155 8.132-21.908 13.48-32.177l16.906 9.761c1.575.909 3.294 1.342 4.99 1.342 3.456 0 6.817-1.794 8.67-5.002 2.762-4.783 1.123-10.898-3.66-13.66l-16.836-9.721c6.335-9.777 13.457-19.001 21.274-27.584l13.686 13.686c1.953 1.952 4.512 2.929 7.071 2.929s5.118-.977 7.071-2.929c3.905-3.905 3.905-10.237 0-14.143l-13.683-13.683c8.587-7.816 17.813-14.934 27.588-21.265l9.714 16.825c1.853 3.208 5.213 5.002 8.67 5.002 1.696 0 3.416-.433 4.99-1.342 4.783-2.762 6.422-8.877 3.66-13.66l-9.752-16.891c10.271-5.348 21.025-9.869 32.173-13.477l5.084 18.975c1.197 4.469 5.237 7.415 9.653 7.415.856 0 1.728-.111 2.594-.344 5.335-1.43 8.501-6.913 7.071-12.247l-5.1-19.033c11.245-2.473 22.809-4.042 34.617-4.607v19.754c0 5.522 4.478 10 10 10s10-4.478 10-10v-19.754c11.807.565 23.372 2.134 34.617 4.607l-5.1 19.033c-1.43 5.334 1.736 10.817 7.071 12.247.867.232 1.737.344 2.594.344 4.415 0 8.456-2.947 9.653-7.415l5.084-18.975c11.148 3.608 21.902 8.129 32.173 13.477l-9.752 16.891c-2.762 4.783-1.123 10.898 3.66 13.66 1.575.909 3.294 1.342 4.99 1.342 3.456 0 6.817-1.794 8.67-5.002l9.714-16.825c9.775 6.331 19.002 13.449 27.588 21.265l-13.683 13.683c-3.905 3.905-3.905 10.237 0 14.143 1.953 1.952 4.512 2.929 7.071 2.929s5.118-.977 7.071-2.929l13.686-13.686c7.817 8.583 14.939 17.807 21.274 27.584l-16.836 9.721c-4.783 2.762-6.422 8.877-3.66 13.66 1.853 3.208 5.213 5.002 8.67 5.002 1.696 0 3.416-.433 4.99-1.342l16.906-9.761c5.347 10.268 9.872 21.022 13.48 32.177l-18.992 5.089c-5.335 1.43-8.501 6.913-7.071 12.247 1.197 4.469 5.237 7.415 9.653 7.415.856 0 1.728-.111 2.594-.344l19.049-5.104c2.469 11.239 4.023 22.807 4.587 34.621zm86.331 70c0 5.514-4.486 10-10 10h-16.002v-20c0-5.522-4.478-10-10-10s-10 4.478-10 10v20h-30v-20c0-5.522-4.478-10-10-10s-10 4.478-10 10v20h-29.999v-20c0-5.522-4.478-10-10-10s-10 4.478-10 10v20h-30v-20c0-5.522-4.478-10-10-10s-10 4.478-10 10v20h-30v-20c0-5.522-4.478-10-10-10s-10 4.478-10 10v20h-30v-20c0-5.522-4.478-10-10-10s-10 4.478-10 10v20h-29.999v-20c0-5.522-4.478-10-10-10s-10 4.478-10 10v20h-30v-20c0-5.522-4.478-10-10-10s-10 4.478-10 10v20h-30v-20c0-5.522-4.478-10-10-10s-10 4.478-10 10v20h-16.002c-5.514 0-10-4.486-10-10v-40c0-5.514 4.486-10 10-10h181.005c5.522 0 10-4.478 10-10s-4.478-10-10-10h-84.608c5.18-66.845 61.76-120 129.604-120 67.845 0 124.426 53.155 129.605 120h-84.601c-5.522 0-10 4.478-10 10s4.478 10 10 10h180.997c5.514 0 10 4.486 10 10z"/><path d="m256.009 316.001h-.008c-5.522 0-9.996 4.478-9.996 10s4.481 10 10.004 10 10-4.478 10-10-4.478-10-10-10z"/></g></g></svg>