<svg id="Layer_1" enable-background="new 0 0 512.002 512.002" height="512" viewBox="0 0 512.002 512.002" width="512" xmlns="http://www.w3.org/2000/svg"><g><g><path d="m492.002 131h-57v-20.343c0-4.182-2.602-7.922-6.523-9.376l-2.563-.951c-52.735-19.568-91.686-34.022-129.913-1.76-38.226-32.261-77.177-17.809-129.913 1.76l-2.563.951c-3.921 1.454-6.523 5.194-6.523 9.376v20.343h-30.954l8.838-83.952c.296-2.818-.617-5.631-2.513-7.737s-4.598-3.31-7.432-3.31h-80.003c-2.834 0-5.536 1.203-7.432 3.31s-2.81 4.919-2.513 7.737l8.838 83.952h-23.833c-11.028 0-20 8.972-20 20v25.001c0 11.028 8.972 19.999 20 19.999h40.001v.001 269.999c0 5.522 4.477 10 10 10h40c5.523 0 10-4.478 10-10v-30h272v30c0 5.522 4.477 10 10 10h40c5.523 0 10-4.478 10-10v-269.999-.001h40.001c11.028 0 20-8.972 20-19.999v-25.001c0-11.028-8.972-20-20-20zm-77.001-13.386v13.386h-108.999v-14.58c29.659-27.254 58.707-17.443 108.999 1.194zm-237.998 0c50.291-18.637 79.338-28.45 108.999-1.194v14.58h-108.999zm-120.955-61.613h57.785l-7.895 74.999h-41.994zm43.953 399.999h-20v-259.999-.001h20v.001zm292-80.001h-272v-139.997h272zm-272 40.001v-20.001h272v20.001zm312-219.999v259.999h-20v-259.999-.001zm60.001-20.001h-191.004c-5.523 0-10 4.478-10 10s4.477 10 10 10h91.003v.001 20.001h-272v-20.001-.001h90.997c5.523 0 10-4.478 10-10s-4.477-10-10-10l-190.998.001v-25.001h472.002z"/><path d="m256.001 196c5.523 0 10-4.478 10-10s-4.477-10-10-10h-.007c-5.523 0-9.996 4.478-9.996 10s4.48 10 10.003 10z"/></g></g></svg>