<svg id="Layer_1" enable-background="new 0 0 512.015 512.015" height="512" viewBox="0 0 512.015 512.015" width="512" xmlns="http://www.w3.org/2000/svg"><g><g><path d="m502.256 9.753c-6.284-6.286-14.665-9.747-23.598-9.747-8.932 0-17.313 3.461-23.597 9.746l-32.208 32.208c-34.183-15.165-75.689-8.779-103.674 19.207-10.777 10.777-18.569 23.736-23.001 37.875l-88.299 50.98c-4.783 2.762-6.422 8.877-3.66 13.66 1.853 3.208 5.213 5.002 8.67 5.002 1.696 0 3.416-.433 4.99-1.342l74.091-42.777c-.021.811-.059 1.619-.059 2.433 0 12.196 2.343 24.029 6.791 35.001l-254.792 137.008-2.939-5.091c-2.809-4.866-3.547-10.565-2.077-16.049 1.469-5.483 4.957-10.05 9.823-12.859l91.21-52.66c4.783-2.762 6.422-8.877 3.66-13.66-2.762-4.781-8.877-6.421-13.66-3.66l-91.21 52.66c-9.492 5.479-16.29 14.359-19.143 25.003-1.963 7.328-1.888 14.868.138 21.952l-14.71 8.492c-4.783 2.761-6.422 8.877-3.66 13.66 1.852 3.208 5.213 5.002 8.67 5.002 1.696 0 3.415-.433 4.99-1.342l13.648-7.879 2.79 4.833c1.848 3.201 5.206 5.002 8.668 5.002 1.601 0 3.224-.386 4.729-1.194l263.357-141.613c3.222 4.684 6.879 9.118 10.986 13.225 4.135 4.135 8.576 7.774 13.234 10.966l-141.623 263.376c-2.56 4.761-.873 10.694 3.808 13.396l4.834 2.791-7.88 13.647c-2.762 4.782-1.123 10.898 3.66 13.66 1.575.909 3.294 1.342 4.99 1.342 3.456 0 6.817-1.794 8.67-5.002l8.504-14.728c3.698 1.055 7.474 1.587 11.227 1.587 14.237 0 28.102-7.382 35.717-20.572l148.693-257.544c13.846-4.343 26.877-11.967 37.829-22.919 17.584-17.584 27.268-40.964 27.268-65.831 0-13.271-2.783-26.107-8.028-37.875l32.175-32.176c13.009-13.012 13.009-34.183-.002-47.194zm-255.256 453.539c-5.835 10.104-18.803 13.577-28.907 7.746l-5.092-2.94 137.026-254.825c11.19 4.52 23.087 6.781 34.984 6.781.819 0 1.638-.037 2.457-.059zm189.699-284.605c-28.5 28.502-74.877 28.502-103.377 0-13.807-13.807-21.41-32.163-21.41-51.688 0-19.526 7.604-37.883 21.41-51.688 14.25-14.251 32.97-21.376 51.688-21.376s37.438 7.125 51.688 21.376c13.807 13.806 21.41 32.162 21.41 51.688.001 19.525-7.602 37.881-21.409 51.688zm51.415-135.883-27.817 27.818-18.91-18.91 27.817-27.818c2.507-2.507 5.865-3.888 9.454-3.888 3.59 0 6.948 1.381 9.455 3.888h.001c5.213 5.214 5.213 13.697 0 18.91z"/><path d="m408.607 103.401c-13.011-13.012-34.183-13.013-47.193 0-6.304 6.303-9.775 14.684-9.775 23.597 0 8.914 3.472 17.295 9.774 23.597 6.303 6.304 14.684 9.775 23.598 9.775 8.913 0 17.294-3.471 23.598-9.774 13.011-13.013 13.011-34.183-.002-47.195.001 0 .001 0 0 0zm-14.141 33.052c-2.525 2.526-5.884 3.917-9.455 3.917-3.572 0-6.93-1.391-9.456-3.917-2.525-2.525-3.916-5.883-3.916-9.455 0-3.571 1.391-6.929 3.917-9.454 2.606-2.606 6.03-3.91 9.455-3.91 3.424 0 6.849 1.304 9.456 3.91h-.001c5.214 5.212 5.214 13.696 0 18.909z"/><path d="m173.907 191.187c5.522 0 10-4.478 10-10s-4.478-10-10-10h-.007c-5.522 0-9.996 4.478-9.996 10s4.481 10 10.003 10z"/></g></g></svg>