<svg id="Layer_1" enable-background="new 0 0 512 512" height="512" viewBox="0 0 512 512" width="512" xmlns="http://www.w3.org/2000/svg"><g><g><path d="m512 56c0-16.542-13.458-30-30-30h-452c-16.542 0-30 13.458-30 30 0 15.185 11.343 27.763 26 29.725v10.275c0 16.542 13.458 30 30 30h10.001v261.006c-22.795 4.646-40 24.847-40 48.994 0 27.57 22.43 50 50 50 19.768 0 36.89-11.532 45-28.22 8.11 16.688 25.232 28.22 45 28.22s36.89-11.532 45-28.221c8.109 16.689 25.231 28.221 44.999 28.221s36.89-11.532 45-28.221c8.11 16.689 25.232 28.221 45 28.221s36.89-11.532 45-28.221c8.11 16.689 25.232 28.221 45 28.221 27.57 0 50-22.43 50-50 0-24.146-17.205-44.348-40-48.994v-261.006h10c16.542 0 30-13.458 30-30v-10.275c14.657-1.962 26-14.54 26-29.725zm-435.999 410c-16.542 0-30-13.458-30-30s13.458-30 30-30 30 13.458 30 30-13.458 30-30 30zm44.999-51.78c-6.705-13.798-19.571-24.07-35-27.214v-261.006h70v261.006c-15.429 3.145-28.294 13.416-35 27.214zm45 51.78c-16.542 0-30-13.458-30-30s13.458-30 30-30 30 13.458 30 30-13.458 30-30 30zm45-51.779c-6.705-13.798-19.571-24.071-35-27.215v-261.006h70v261.006c-15.429 3.145-28.295 13.417-35 27.215zm45 51.779c-16.542 0-30-13.458-30-30s13.458-30 30-30 30 13.458 30 30-13.458 30-30 30zm45-51.779c-6.705-13.798-19.571-24.071-35-27.215v-261.006h70v261.006c-15.429 3.145-28.295 13.417-35 27.215zm45 51.779c-16.542 0-30-13.458-30-30s13.458-30 30-30 30 13.458 30 30-13.458 30-30 30zm120-30c0 16.542-13.458 30-30 30s-30-13.458-30-30 13.458-30 30-30 30 13.458 30 30zm-40-48.994c-15.429 3.145-28.295 13.417-35 27.215-6.705-13.798-19.571-24.071-35-27.215v-261.006h70zm56-321.006h-181.003c-5.522 0-10 4.478-10 10s4.478 10 10 10h165.003v10c0 5.514-4.486 10-10 10h-400c-5.514 0-10-4.486-10-10v-10h164.997c5.522 0 10-4.478 10-10s-4.478-10-10-10h-180.997c-5.514 0-10-4.486-10-10s4.486-10 10-10h452c5.514 0 10 4.486 10 10s-4.486 10-10 10z"/><path d="m256 66h-.007c-5.522 0-9.996 4.478-9.996 10s4.48 10 10.003 10 10-4.478 10-10-4.478-10-10-10z"/></g></g></svg>